<?xml version="1.0" encoding="UTF-8"?>
<svg id="Layer_2" data-name="Layer 2" xmlns="http://www.w3.org/2000/svg" viewBox="0 0 116 230">
  <defs>
    <style>
      .cls-1 {
        fill: #6c6557;
      }

      .cls-2 {
        fill: #7a5f36;
      }

      .cls-3 {
        fill: #050904;
      }

      .cls-4 {
        fill: #0d130e;
      }

      .cls-5 {
        fill: #564737;
      }

      .cls-6 {
        fill: #9e765e;
      }

      .cls-7 {
        fill: #5d5a4e;
      }

      .cls-8 {
        fill: #787569;
      }

      .cls-9 {
        fill: #e6ddc8;
      }

      .cls-10 {
        fill: #423f36;
      }

      .cls-11 {
        fill: #2d2c21;
      }

      .cls-12 {
        fill: #453424;
      }

      .cls-13 {
        fill: #d3c3a4;
      }

      .cls-14 {
        fill: #1e1f15;
      }

      .cls-15 {
        fill: #b7947d;
      }
    </style>
  </defs>
  <g id="Layer_1-2" data-name="Layer 1">
    <g>
      <path class="cls-3" d="M110.82,227.44l3.07-1.03c1.32-1.64,2.11-3.72,2.11-5.99v-6.48l-27.48,6.58-29.78,6.71c-.2,1.26-.32,1.91-.76,2.77h42.06l.35-.05,10.42-2.51Z"/>
      <path class="cls-7" d="M48.73,225.29l44.64-10.2c-.02-2.96,4.75-1.3,7.08-3.51,1.88-1.78,4.39-2.01,6.77-2.83-.99-.59-1.77-.27-2.39-.57l-4.5.82-34.77,7.28-8.59,1.94.05,1.13c.01.29-.01.86-.5,1.04-.44.16-1.13-.64-1.47-1.2l-40.63,8.1-8.18,2.1c1.04.39,2.16.61,3.34.61h20.75l13.95-3.69c1.87-.49,2.64-.6,4.45-1.01ZM56.04,221.02c.05,1.5-1.61,2.36-2.74,1.05,1.29-.09,2.02-.27,2.74-1.05ZM52.34,222.76c-1.39,1.41-2.66,1.76-4.43,1.08,1.37-.89,2.64-1.52,4.43-1.08ZM45.7,224.47c-.24.36-1.29.81-2.19.1-.05-.11.83-1.09,2.19-.1Z"/>
      <path class="cls-14" d="M88.52,220.52l27.48-6.58v-4.15l-22.63,5.31-44.64,10.2c-1.8.41-2.58.52-4.45,1.01l-13.95,3.69h27.65c.44-.86.56-1.51.76-2.77l29.78-6.71Z"/>
      <path class="cls-11" d="M55.06,219.19c.34.56,1.03,1.36,1.47,1.2.48-.18.51-.75.5-1.04l-.05-1.13c-.88.16-1.94-.04-2.35-1.18l-31.38,6.58-13.56,3.31c-1.95.48-3.93.8-5.92,1.1.74.57,1.57,1.03,2.46,1.36l8.18-2.1,40.63-8.1Z"/>
      <path class="cls-14" d="M111.48,228.55s-.04,0-.06-.01c-.35-.18-.59-.7-.6-1.09l-10.42,2.51-.35.05h6.37c1.86,0,3.59-.54,5.06-1.45Z"/>
      <path class="cls-14" d="M58.37,216.54l-3.74.5c.4,1.14,1.47,1.34,2.35,1.18l8.59-1.94,34.77-7.28,4.5-.82,11.16-2.72v-1.58l-37.21,8.24-20.42,4.43Z"/>
      <path class="cls-11" d="M111.42,228.53s.04,0,.06.01c.92-.57,1.74-1.3,2.42-2.14l-3.07,1.03c0,.39.25.92.6,1.09Z"/>
      <path class="cls-1" d="M93.37,215.1l22.63-5.31v-1.59l-15.55,3.39c-2.34,2.21-7.1.55-7.08,3.51Z"/>
      <path class="cls-10" d="M107.22,208.75c-2.39.82-4.89,1.05-6.77,2.83l15.55-3.39v-2.74l-11.16,2.72c.62.3,1.39-.02,2.39.57Z"/>
      <path class="cls-11" d="M52.34,222.76c-1.79-.45-3.06.18-4.43,1.08,1.76.68,3.03.33,4.43-1.08Z"/>
      <path class="cls-11" d="M45.7,224.47c-1.36-.99-2.24-.01-2.19.1.89.71,1.95.26,2.19-.1Z"/>
      <path class="cls-11" d="M56.04,221.02c-.72.78-1.45.95-2.74,1.05,1.13,1.31,2.79.45,2.74-1.05Z"/>
      <path class="cls-8" d="M23.25,223.62l.04-2.72c-1.42.29-2.53-.3-4.08-1.08-1.06.56-2.91,3.14-4.68,1.82-4.8-3.59-7.87,3.35-12.81-.78l17.05-3.3,11.41-1.4,9.79-1.65c3.12-.52,7.2-.12,9.86-2.01,2.31-1.64,4.24-.58,6.33-.93l12.52-2.09,9.37-1.73c.48-.09,1.29.09,1.67-.08.37-.18.5-.8.38-1.35-5.18-1.45-7.87,2.09-11.46.78.52-1.31,1.29-1.56,1.79-2.24l-60.74,11.62-5.85.92c-.24.66-1.07.67-1.65.65-.59-.03-1.62.15-2.15-.08,0,0-.01,0-.02.01v2.43c0,3.11,1.48,5.86,3.78,7.61,1.99-.29,3.97-.62,5.92-1.1l13.56-3.31ZM65.7,207.22h1s-.49.03-.49.03h-1s.49-.03.49-.03Z"/>
      <path class="cls-14" d="M115.13,5.61L98.97.69c-.41-.12-1.09-.04-1.42-.54-.03-.04-.05-.09-.07-.14h-6.87l25.19,7.65c-.15-.71-.38-1.39-.67-2.04Z"/>
      <path class="cls-14" d="M46.54,3.66l8.44,2.3,41.14,10.14,6.55,1.63,2.33.7,2.13.56,8.86,2.35v-2.85l-21.71-5.83c-.3-.08-.81-.01-1.11,0l-27.35-7.14-13.07-3.21-5.91-1.4c-.68-.16-1.42-.26-1.75-.76-.03-.04-.04-.1-.06-.15h-13.28c.06.01.13.02.19.03l14.59,3.63Z"/>
      <path class="cls-14" d="M98.21,7.41l10.8,2.87,1.43.4.58.12,4.99,1.41v-2.62c0-.06,0-.11,0-.17l-1.42-.42L85.29.7c-.57-.16-1.04-.19-1.24-.56-.02-.04-.03-.09-.05-.14h-10.46c.12.02.24.05.36.08l24.3,7.33Z"/>
      <path class="cls-15" d="M1.92,29.97c1.94-2.27,3.37-2.02,6.17-1.92l-3.95-2.76c1.39-1.32,2.99-1.61,4.58-2.06,2.58,3.57,6.73-1.24,5.35,2.5l.09,1.29c.47.18,1.33.13,1.76-.26.32-.3.65-.91.86-1.74,3.85.45,7.97-.76,10.48-3.98-5.43-3.56-3.54-10.24-5.28-10.52l-2.81-.45c1.95-1.99,2.16-3.77,1.17-5.95l-6.21-1.4c-2.84-.64-5.59-1.38-8.39-1.91C2.35,2.3,0,5.66,0,9.58v19.07c.52.56,1.24,1.04,1.92,1.32ZM8.64,15.86c2.04-3.54,7.71-4.74,10.91-1.29,1.49,1.61-.13,4.1-.96,5.28-1.71,2.44-6.65,2.57-9.23.23-1-.91-1.61-2.67-.72-4.22ZM5.87,9.38l-2.56,8.68c-2.49-2.73-1.75-7.34,2.56-8.68Z"/>
      <path class="cls-15" d="M17.88.68l5.43,1.39,35.84,8.2c.17-3.21-4.26-1.47-4.18-4.31l-8.44-2.3L31.95.03c-.06-.01-.13-.02-.19-.03h-15.27c.02.06.04.12.07.16.24.29.74.38,1.32.52Z"/>
      <path class="cls-1" d="M85.29.7l29.28,8.29,1.42.42c-.01-.6-.07-1.19-.19-1.76L90.62,0h-6.61s.03.1.05.14c.19.36.67.4,1.24.56Z"/>
      <path class="cls-1" d="M46.85.91l5.91,1.4c-.06-.44-.25-.87-.07-1.7l13.22.15c9.97,1.1,19.35,3.93,28.73,7.25,1.5.53,2.73-.29,3.57-.61L73.91.08c-.12-.03-.24-.05-.36-.08h-28.51c.02.05.03.11.06.15.34.5,1.07.6,1.75.76Z"/>
      <path class="cls-10" d="M112.43,2.12c-.63-.51-1.33-.94-2.08-1.28.38.58,1.22,1,2.08,1.28Z"/>
      <path class="cls-14" d="M20.32,4.12l3,.8c1.08.29,2.64.17,3.73.43-1.27-1.76-3.61-1.28-3.74-3.29l-5.43-1.39c-.57-.15-1.08-.23-1.32-.52-.03-.04-.05-.1-.07-.16h-6.91c-1.37,0-2.68.29-3.86.82,2.8.52,5.55,1.27,8.39,1.91l6.21,1.4Z"/>
      <path class="cls-10" d="M98.97.69c.66-.35,1.31-.56,1.96-.69h-3.45s.04.1.07.14c.32.5,1.01.42,1.42.54Z"/>
      <path class="cls-10" d="M108.21.17c-.58-.11-1.18-.17-1.79-.17h-2.04c1.57.22,2.92.54,3.83.17Z"/>
      <path class="cls-4" d="M59.16,10.27L23.32,2.07c.13,2.01,2.46,1.53,3.74,3.29l14.88,3.49,14.32,3.37,24.35,5.53,35.39,8.51v-2.16l-5.12-1.34-51.72-12.49Z"/>
      <path class="cls-1" d="M68.63,207.11c3.59,1.31,6.27-2.23,11.46-.78h1.59c-.21-2.1,2.71-.93,6.65-2.65.45.91.24,1.37.23,1.78l8.32-1.53c2.59-.48,5.03-1.5,7.49-.3l-25.01,5.41-27.74,6.01-28.32,5.85-.04,2.72,31.38-6.58,3.74-.5,20.42-4.43,37.21-8.24v-8.17l-45.58,9.16c-.49.68-1.27.93-1.79,2.24ZM107.95,201.87c2.21-1.32,5.11-1.86,8.04-1.3-2.68,2.48-5.44,1.99-7.99,2.55-.95.21-2.21.16-3.13-.41l3.08-.83Z"/>
      <path class="cls-11" d="M114.98,192.52c-.25.18-.83.32-1.45.42l-6.33,1.11c-2.83.49-4.6,1.36-7.15,1.86l-13.55,2.69-3.33.69-1.5.11c-2.13-.36-3.95,1.08-5.88,1.45l-6.64,1.28c.2-1.15.42-1.92.32-2.28-.17-.63-1.18-.35-1.57-.44.35.51.5,1.26.31,1.75-.17.43-1.11.98-1.78.91-6.49-.68-14.57,3.12-16.91,2.31l-7.58-2.61c-1.1-.38-2.02-.68-2.22-1.4-.51-1.83,1.11-3.8.38-5.48-.28-.64-1.14-1.26-2.15-1.51-.42.86-1.16,1.62-.97,3.3l.57,4.92c.46,3.99,4.26,6.08.5,6.77l-19.38,3.58c-3.24.6-6.23,1.03-9.67.89l.67,3.64,60.74-11.62,45.58-9.16v-5.06l-.67.12c.21.53.14,1.38-.35,1.74Z"/>
      <path class="cls-15" d="M79.36,209.04l25.01-5.41c-2.46-1.2-4.91-.18-7.49.3l-8.32,1.53c-2.27.42-4.55.89-6.88.88h-1.59c.12.54,0,1.16-.38,1.34-.37.18-1.19,0-1.67.08l-9.37,1.73-12.52,2.09c-2.09.35-4.01-.72-6.33.93-2.66,1.89-6.75,1.49-9.86,2.01l-9.79,1.65-11.41,1.4-17.05,3.3c4.94,4.12,8.01-2.81,12.81.78,1.77,1.32,3.62-1.27,4.68-1.82,1.55.78,2.65,1.38,4.08,1.08l28.32-5.85,27.74-6.01Z"/>
      <path class="cls-14" d="M2.17,218.06c-.08-.4-.07-1.12.49-1.43.36-.2.96.6,1.16.78l5.85-.92-.67-3.64c3.44.14,6.43-.29,9.67-.89l19.38-3.58c3.76-.69-.04-2.78-.5-6.77-3.68.81-3.91,5.49-9.55,4.09-3.16,3.27-6.45,1.2-11.26,1.69-.6-.87-1.25-2.61-2.21-2.88-1.19-.33-2.22.36-3.19.82.15.58.17,1.47-.17,1.86-.58.68-1.69.59-2.45.13.11,2.03-1.85,1.81-3.4,2.7-.91.52-1.63,2.98-3.38,1.51-.41-.34-1.12-.86-1.55-.98-.14-.04-.27-.03-.4-.02v7.43s.01,0,.02,0c.54.23,1.56.05,2.15.08Z"/>
      <path class="cls-11" d="M0,217.97v.02s.01,0,.02-.01c0,0-.01,0-.02,0Z"/>
      <path class="cls-11" d="M2.66,216.63c-.56.31-.57,1.03-.49,1.43.58.03,1.41.01,1.65-.65-.2-.18-.8-.98-1.16-.78Z"/>
      <polygon class="cls-1" points="66.21 207.25 66.7 207.24 66.21 207.22 65.7 207.22 65.22 207.24 65.7 207.25 66.21 207.25"/>
      <path class="cls-14" d="M2.73,189.44c.44-2.88.54-5.36,1.73-8.4-2.94-1.94-3.95-7.02-2.08-9.84.39-.6,2.12-.94,2.05-1.48-.21-1.77-3.49-4.54-2.46-7.05.54-1.33,1.33-3.92,3.09-3.85,1.91.07,3.31,1.28,4.69,1.7.17-.3.94-.86.54-1.17l-1.44-1.14c-2.04-1.61-2.06-5.17-.54-7.95l3.67,7.21c.62,1.22.88,2.61.8,3.7,1.65-.2,2.94.89,4.41,2.56,2-2.58,4.24-2.82,6.84-1.49,1.07-.74.47-2.48.21-3.42-.28-1.01,1.57-1.22,2.05-.74l-.24-6.92c-.54.19-3.07.19-3.23-.69-.26-3.18.15-5.9-1.21-8.76l-2.86.68c-2.46-3.52-.72-7.28,2.4-9.53,1.69-1.22.29-3.92.74-4.93-1.04-.17-1.89-.32-2.79-.66l-6.05,4.31c-2.54,1.81-5.74,4.89-6.67,8.04l-3.76,12.78-.91,4.91c-.31,1.69-.3,3.55-1.58,5.54-.06.1-.11.2-.15.31v1.61c.32,1.5,1.15,3.19.09,4.22-.03.03-.06.04-.09.07v19l.17.47c.43,1.17,2.46,1.55,2.56.88ZM12.44,152.91c.42-1.25,1.58-2.33,3.42-2.33,1.99,0,4.38.64,5.44,2.7.91,1.77-.19,6.59-2.89,6.9l-5.08-4.15c-1.08-.88-1.16-2.33-.89-3.12Z"/>
      <path class="cls-11" d="M7.81,123.53c3.63-.44,6.71.2,9.95.65,1.32.19,2.24,1.11,4.56-.01-.76,1.79-1.98,2.26-3.2,3.12.9.34,1.75.49,2.79.66l2.05-3.61,6.42-3.9c-2.82-2.21-6.02,4.07-8.04,2.38l-1.94-1.63c-2.01-1.68-5.27-.33-7.91,1.09-1.26-2.02-.41-4.11-.03-6.42.35-2.11,2.2-4.19,4.43-3.16,2.07.96,3.9,2.46,6.35,2.9,4.17-4.5,6.82,1.72,9.66-.99l-8.23-4.15c-.31-.15-1.02-.3-1.29-.84-.18-.37.29-.84.61-1.02.08-.55,0-1.37-.09-1.95-2.17-.37-2.11-1.92-2.34-4.07-.27-2.58-3.96-4.45-6.28-3.42-.5,1.91-.52,4.07-.28,5.77.52,3.61-.32,6.41-3.77,8.04.18.81-.25,1.75-.73,2.07-1.23.85-5.46.24-6.8-3.01-.89,1.27-2.27,2.51-3.68,2.8v8.22c2.37-1.44,5.45-1.15,7.81.49Z"/>
      <path class="cls-11" d="M2.06,139.06c1.06-1.37,1.31-3.92,1.7-5.64-.91.47-2.49.82-3.76.74v7.01c.57-.74,1.26-1.44,2.06-2.11Z"/>
      <path class="cls-11" d="M0,164.8v4.29s.06-.04.09-.07c1.07-1.04.23-2.73-.09-4.22Z"/>
      <path class="cls-11" d="M1.73,157.33c-.59-.13-1.21-.29-1.73-.49v6.35c.04-.11.09-.21.15-.31,1.27-2,1.26-3.85,1.58-5.54Z"/>
      <path class="cls-4" d="M.4,210.56c.43.12,1.14.64,1.55.98,1.75,1.47,2.48-.99,3.38-1.51,1.55-.9,3.51-.67,3.4-2.7-.95.22-1.72-.04-1.68-1.02.02-.64.19-1.53,1.31-1.35.86.14,2.25.72,2.99.38.97-.46,2-1.15,3.19-.82.96.27,1.61,2.01,2.21,2.88,4.81-.49,8.1,1.58,11.26-1.69,5.63,1.4,5.87-3.28,9.55-4.09l-.57-4.92c-.2-1.69.54-2.45.97-3.3l.68-9.76,2.38-4.45c.49-3.04.49-4.43,2.39-6.23l6.84-6.51c.32-.3.69-1.09.74-1.53-1.21.14-1.9-1.14-2.04-2.53l-.73-7.15c-.1-1.02.6-2.4,1.23-2.74,1.56-.85,4.97,2.27,7.86-1.59.68-.91,1.15-1.74,2.71-1.67l-.15,5.91,3.27-1c0-3.58-.18-7.18-1.6-10.42l-3.21.14c.07.44.11,1.18.36,1.51,1.3,1.68-3.48,5.54-8.82,5.68-.43.15-.76-1.19-.41-1.42l1.66-1.07c1.51-.97,1.18-3.22,1.85-4.6l-1.01-.36c-.15-.09-.29-.15-.43-.17-.67-.12-1.92-.59-2.61-.32-1.97.79-4.83-.49-6.56-.39-1.94,1.49-3.97,2.05-6.51,2.63-2.24.51-4.07,3.18-5.96,4.2l2.75,5.83,1.28,7.91c-2.25.77-3.64,2.01-4.58,4.12-3.52-2.48-2.95-5.98-3.06-9.32-.48-.48-2.34-.27-2.05.74.26.93.87,2.68-.21,3.42-2.6-1.34-4.84-1.09-6.84,1.49-1.46-1.67-2.76-2.76-4.41-2.56l-.1,1.76c.96.17,2.82,1.31,1.81,2.12-1.64,1.32-3.52-1.08-3.94-2.43-.17-.55-1.08-1.56-.81-2.12-1.38-.43-2.78-1.63-4.69-1.7-1.76-.07-2.55,2.52-3.09,3.85-1.02,2.51,2.25,5.29,2.46,7.05.06.54-1.66.88-2.05,1.48-1.87,2.83-.86,7.9,2.08,9.84-1.19,3.04-1.29,5.52-1.73,8.4-.1.68-2.13.29-2.56-.88l-.17-.47v5.47c1.34,4.1,3.23,7.51,5.88,11.08-.74.99-2.49,3.06-4.14,2.82-.75-.11-1.32-.45-1.74-.92v4.01c.13-.02.26-.02.4.02Z"/>
      <path class="cls-4" d="M0,199.68v.54c.05-.09.11-.18.16-.27-.06-.09-.11-.18-.16-.27Z"/>
      <path class="cls-6" d="M109.01,10.28l-10.8-2.87c-.84.32-2.07,1.14-3.57.61-9.38-3.32-18.75-6.15-28.73-7.25l-13.22-.15c-.18.82.01,1.25.07,1.7l13.07,3.21c.92-1.14,2.17-1.37,3.59-1l22.76,5.78c.45.12,1.27.85,1.44,1.16.15.29-.17.8-.44,1.21.3-.01.81-.08,1.11,0,6.08-2.41,13.07,5.35,14.72-2.39Z"/>
      <path class="cls-1" d="M110.44,10.68l-1.43-.4c-1.64,7.74-8.64-.02-14.72,2.39l21.71,5.83v-6.29l-4.99-1.41c.43.98-1.11,1.4-.58-.12Z"/>
      <path class="cls-8" d="M107.14,18.98l-2.13-.56c-.08.9-.56.99-1.2,1.01-1.06.03-1.42-.69-1.13-1.71l-6.55-1.63L54.98,5.96c-.08,2.84,4.35,1.1,4.18,4.31l51.72,12.49c-.44-2.66-4.2-1-3.74-3.78Z"/>
      <path class="cls-1" d="M110.88,22.76l5.12,1.34v-2.77l-8.86-2.35c-.46,2.77,3.3,1.12,3.74,3.78Z"/>
      <path class="cls-1" d="M93.63,11.46c-.17-.31-.98-1.04-1.44-1.16l-22.76-5.78c-1.42-.36-2.67-.14-3.59,1l27.35,7.14c.27-.41.6-.92.44-1.21Z"/>
      <path class="cls-1" d="M103.8,19.43c.65-.02,1.12-.11,1.2-1.01l-2.33-.7c-.29,1.02.07,1.74,1.13,1.71Z"/>
      <path class="cls-6" d="M111.01,10.8l-.58-.12c-.53,1.52,1,1.1.58.12Z"/>
      <path class="cls-2" d="M11,35.16c.64-1.62-.15-3.41.14-4.9.1-.52,1.74-.84,2.14-.18.88,1.45-1.21,3.55-1.11,4.64.7,1.52,2.83,1.72,3.84,1.95.14-1.16.83-2.29,2.09-2.28h.55c.04-1.56,1.29-1.98,2.7-1.63.91.23,1.7.55,2.91,1.64.41-1.06,1.04-2.43,1.88-2.5,1.35-.11,1.75,1.8,2.16,2.44,1.33-.13,1.33-2.24,1.26-3.11l3.03,1.3,2.52-.93,3.81,1.54c.06-2.64.92-5.08.15-8.11-.27-1.08.37-3.55,1.48-3.15.74.27,1.29.64,1.75.51.29-.08.42-.73.33-1.03-.41-1.36-3.28-1.21-2.78-3.25l5.12-.98.63-3.8c-.44-.22-.87-.6-1.44-.65.12.43.2.84.06,1.1-.22.43-.89.63-1.56.34l-4.76-2.04c-.36,2.63-1.52,3.27-3.78,2.91-1.35-.21-2.35-1.79-1.34-3.16.87.22,2.6.95,3.04.32l1.39-1.95,4.71-1.34-14.88-3.49c-1.1-.26-2.65-.14-3.73-.43-.42.63-.17,2.46.42,2.33.96-.23,1.9-.51,2.44-.33.57.2,1.61,1.39,1.17,1.81l-1.33,1.28c-.56.54.25,2.67,1.08,1.76l2.92-3.2c.81.7.96,2.29.57,2.6l-2.08,1.65c-.56,2.45,2.7,2.57,6.01,3.89,2.66,1.06-2.1,3.96-.34,8.55-1.04,1.27-4.39,1.16-5.97-.88-.97,4.04-5.69,7.08-6.03,6.94-.83-.33-1.34-1.45-1.8-2.57.22-1.29-1.69-1.84-1.68-.2l.54.39c.78.52-.08,1.63-.72.72-.02-.09-.16-.25-.27-.3l-2.72-.32c-.72-.08-1.31-.89-1.39-2l-.09-1.29-1.94-.23c.61,1,.49,2.15.02,2.67-.72.8-1.8,1.15-3.64.97l.66,6.22c.73.65,1.63.31,1.84-.21Z"/>
      <path class="cls-6" d="M7.75,40.71l-1.77-2.32c-.69-.91-.32-1.77.6-2.18.93-.41,1.86-.23,2.69.43-.02-.3-.07-.94-.1-1.26l-.66-6.22c1.84.18,2.92-.18,3.64-.97.47-.52.59-1.67-.02-2.67l1.94.23c1.38-3.74-2.77,1.07-5.35-2.5-1.59.45-3.19.74-4.58,2.06l3.95,2.76c-2.79-.1-4.23-.35-6.17,1.92-.68-.28-1.4-.76-1.92-1.32v4.9c.38,1.74.65,3.87,2.91,6.11,1.16,1.15,3.48,1.31,4.83,1.05Z"/>
      <path class="cls-9" d="M18.59,19.85c.83-1.18,2.45-3.67.96-5.28-3.2-3.45-8.86-2.24-10.91,1.29-.9,1.55-.28,3.31.72,4.22,2.58,2.34,7.52,2.21,9.23-.23Z"/>
      <path class="cls-6" d="M5.87,9.38c-4.31,1.33-5.05,5.95-2.56,8.68l2.56-8.68Z"/>
      <path class="cls-1" d="M115.13,5.61c-.62-1.37-1.55-2.56-2.71-3.49-.87-.28-1.71-.7-2.08-1.28-.67-.3-1.39-.53-2.13-.67-.91.37-2.26.04-3.83-.17h-3.44c-.65.12-1.31.33-1.96.69l16.16,4.93Z"/>
      <path class="cls-14" d="M77,18.78c1.58,1.35,4.9.72,5.38,2.51.14.53-.03,1.56-.67,1.9-.04.52,0,1.26.23,1.71.11.22,7.68,2.09,10.88-.01,1.72.99,3.62,1.48,5.64,1.64,1.47.12,2.14,1.27,2.84,1.56,4.79,2.01,9.43,1.11,14.7,4.27v-6.09l-35.39-8.51c-.78,1-1.91,1.02-3.61,1.03Z"/>
      <path class="cls-10" d="M109.29,91.96l-4.58,6.19c2.01.42,1.29,3.25,1.6,4.5,1.94,3.28,6.27,3.59,9.68,4.3v-1.77c-.76-.62-1.31-1.48-1.35-2.58-.04-.93.55-1.91,1.35-2.62v-5.54c-.33.12-.7.22-1.09.28-2.05.3-4.64-.36-5.61-2.78Z"/>
      <path class="cls-10" d="M110.86,77.81l.85,3.21,1.43.69c.67-.69,1.72-.88,2.86-.72v-3.09c-1.63-.6-3.41-.95-5.14-.08Z"/>
      <path class="cls-12" d="M58.59,15.5c2.58-.62,1.49,3.23,4.27,3.12,1.88-.08,5.09,1.74,5.1,2l.09,2.26c1.25-1.81,2.05-2.24,3.5-2.2,4.7.15,3.79,2.85,4.53,3.3.64.39,1.28-.47,1.39-1.18,1.44-.43,3.03.33,4.24.39.64-.34.81-1.37.67-1.9-.48-1.79-3.8-1.16-5.38-2.51,1.7-.01,2.82-.03,3.61-1.03l-24.35-5.53c0,1.47,1.48,2.39,2.33,3.28Z"/>
      <path class="cls-5" d="M35.84,12.13c-.45.63-2.18-.1-3.04-.32-1.01,1.36,0,2.94,1.34,3.16,2.26.36,3.42-.28,3.78-2.91l4.76,2.04c.68.29,1.34.09,1.56-.34.14-.26.06-.67-.06-1.1-.23-.13-.4-.3-.44-.5-.04-.22.34-.92.77-.86l5.47.82c1.29.19,1.77,1.02,1.75,2l-.06,2.99c.46.6,1.39,1.61,2.01,1.32l2.06-.95c1.32-.61,2.88-.45,2.86-1.99-.86-.89-2.33-1.81-2.33-3.28l-14.32-3.37-4.71,1.34-1.39,1.95Z"/>
      <path class="cls-6" d="M115.99,200.57c-2.93-.56-5.83-.02-8.04,1.3l.05,1.25c2.55-.56,5.3-.07,7.99-2.55Z"/>
      <path class="cls-8" d="M88.32,203.68c-3.94,1.73-6.86.55-6.65,2.66,2.33.01,4.61-.46,6.88-.88,0-.41.22-.88-.23-1.78Z"/>
      <path class="cls-15" d="M108,203.12l-.05-1.25-3.08.83c.92.57,2.18.62,3.13.41Z"/>
      <path class="cls-4" d="M113.3,159.65c.57.4.79,1.38,1.1,1.85.73.46,1.28,1.07,1.6,1.82v-14.83c-2.11,4.24-1.48,7.42-2.7,9.61-.14.38-.03,1.12,0,1.56Z"/>
      <path class="cls-4" d="M110.17,125.19c-.12,2.07.03,3.93-1.48,5.48-.82-1.74-1.35-2.82-2.16-3.24-1.07-.55-3.58-.39-3.79.6-.6,2.8-.84,4.9-2.23,6.73l-2.66,3.51c-2.18,2.89-4.98,6.34-8.46,6.23-.6.51-1.51.9-2.21,1.23-.67.32-1.19,1.02-2.54,1.02h-6.19c.59,5.02,9.35,4.02,15.29.11.67.5,1.93,1.73,2.76,1.27,1.2-.67,1.31-3.08,1.94-3.91l6.97-3.67c-.08,3.42,1.02,5.43,2.88,8.89-4.9-2.01-7.63-7.03-9.23-3.47,4.04,2.5,4.84,6.06,8.45,7.14,1.31.39,3.46-3.55,8.48-4.89v-19.27l-.82-2.71-5.01-1.07Z"/>
      <path class="cls-3" d="M71.24,172.31c-1,1.52-2.89,1.61-4.53,1.35l-7.63-1.23c-.97.41-2.03.8-3.79.89,1.54,1.04,2.01,2.19,1.64,3.75.52-.18,1.68-.05,2.18.17-.13-.65-.27-1.62.08-2.18.26-.43,1.38-.51,2.15-.41l7.58.9-.17,4.33,1.83,1.62c2.33-.17,4.73,1.28,5.85,3.71.43.94.2,2.06-.41,2.77-.38.44-1.13.61-1.82.99-.44.24-.72.6-1.19.58-.91-.05-1.36-.73-1.98-.83l-5.62-.92c-.81.12-1.48.43-1.7,1.24l7.59,3.15c1.81.75,3.99,2.76,3,4.94-.56,1.22.91,2.75,1.49,3.75,1.93-.37,3.75-1.81,5.88-1.45l.15-1.12c.06-.44.58-.72.98-.43.47.33.51.92.37,1.44l3.33-.69c-.1-2.39-1.01-4.26-.42-7.21,1.46,3.67,5.27,5.12,6.86,3.94.71-.53,1.31-1.78,1.65-2.83-1.75-.53-2.8-2.03-2.21-3.75.6-1.73,2.12-2.53,3.65-2.86l2.94-2.19c3.3-2.45,6.08-5.09,9.79-6.2l2.81-.84,1.57-.59.67-.07c.11-.23.26-1.61-.19-1.85-1.39-.75-3.01-.37-4.21-.17l-11.09,6.82c-1.84,1.13-3.96.97-4.92-.98-.66-1.34-.42-3.17,1.09-4.36l4.61-3.66-4.31-2.77c1.02-1.08,1.94-.75,2.45-.91.26-.08.46-.56.35-.88-.99-3.07.86-5.33,3.51-6.7-.36-.74-.14-2.13.5-2.29l2.25-.58c.67-1.34-.41-4.44-1.91-5.78-3.67-3.28-9.88-2.94-13.75.12l-.31,10.86c-1.59,1.46-3.6-2.21-4.18-1.08l-.93,1.81c-1.78.94-4,1.47-5.92,1.71l1.59-7.85c-.68-.37-1.97-1.18-1.69-1.55.21-.28,1.19-1.26,1.06-1.7-1.51-1.38-4.83-3.13-7.12-2.37-1.81,2.6-4.61.18-5.88,1.8-1.44,1.84.52,6.61-1.6,9.43l-.79-3.19c-.12-.5-1.33-1.05-2.01-1.01.28-.01-.75,3.3-6.64,4.29.71-1.6,1.03-2.41,1.01-3.16-.03-1.08-.59-1.26-1.23-1.41-.74-.18-1.94.18-2.03,1.01l-.58,5.3c11.01-1.25,23.35,2.74,20.27,7.41ZM78.76,170.55c.23-.4-5.3,3.69-6.55,1.86,4.46-2.21,7.6-3.68,6.55-1.86ZM70.03,156.93c1.07-.95,3.4-.48,5.05-.18.29,1.42.14,2.64-.35,4.78-1.99.63-3.98.46-6.04-.42.22-1.31.37-3.31,1.34-4.18Z"/>
      <path class="cls-14" d="M107.5,124.23l-7.89.24.04.77-1.52,8.96c.59.07,1.36.95,2.39.57,1.39-1.84,1.63-3.93,2.23-6.73.21-.99,2.72-1.15,3.79-.6.81.42,1.34,1.5,2.16,3.24,1.51-1.55,1.37-3.41,1.48-5.48l5.01,1.07.82,2.71v-4.86l-1.65-.48c-3.37-.99-4.24.53-6.85.61Z"/>
      <path class="cls-14" d="M106.32,102.65c-.31-1.25.41-4.08-1.6-4.5-1.02.38-2.05.56-3.15.66-3.25-.16-1.25,3.2-1.54,7.74l-.57,8.88c-.11,1.69.29,3.02,1.98,3.72l6.53-.31c1.56-.07,2.76-1.41,4.6-.47l1.16-2.54c.75.61,1.51.99,2.28,1.23v-10.1c-3.41-.72-7.74-1.03-9.68-4.3Z"/>
      <path class="cls-1" d="M110.52,180.84c-1.4-.52-2.1-1.53-1.74-3.34-3.71,1.11-6.5,3.75-9.79,6.2l-2.94,2.19c-.67,1.53-.77,3.39.47,4.71,2.82-1.21,4.69-3.08,8.21-3.13l-3.91,3.79c2.52,1.52,4.82.24,6.98.35l2.92.14c-.02-.95.5-1.41,1.33-1.48.78-.07,1.66,0,1.9.87l1.39-.37.67-.12v-7.71c-.5-.19-.44-.74,0-.93v-2.48c-.65,0-1.33-.03-2.03-.07-.89.14-1.97,1.93-3.45,1.38ZM107.13,183.87c-.41,1.5-5.79,1.97-5.59,2.08-.64-.36-.79-2.1.12-2.62l5.26-3.03c.82,1.57.53,2.44.22,3.58ZM111.17,189.25h-.99s.49-.03.49-.03h.99s-.49.03-.49.03ZM111.92,184h-1s.49-.03.49-.03h1s-.49.03-.49.03ZM114.66,183.24h-.49s-.51.01-.51.01h-.49s.49-.03.49-.03h.99Z"/>
      <path class="cls-10" d="M40.1,194.89c.73,1.68-.89,3.65-.38,5.48.2.71,1.12,1.02,2.22,1.4l7.58,2.61c2.35.81,10.42-2.99,16.91-2.31.67.07,1.61-.47,1.78-.91.19-.49.04-1.23-.31-1.75l-10.24-2.16c-.03.9,1.28,1.96,1.69,2.77-1.46,2.59-8.66,2.82-11.1,1.23-1.55-1.01-3.97-.96-5.89-1.55l-.92-5.06c-1.18-2.67-1.15-4.75-.35-7.15.54-1.62-.61-3.55-2.47-3.87l-.68,9.76c1.01.24,1.87.87,2.15,1.51Z"/>
      <path class="cls-4" d="M94.6,192.5c-.34,1.05-.94,2.3-1.65,2.83-1.58,1.18-5.39-.27-6.86-3.94-.59,2.95.31,4.82.42,7.21l13.55-2.69c2.55-.51,4.32-1.37,7.15-1.86l6.33-1.11c.61-.11,1.2-.24,1.45-.42.48-.36.55-1.21.35-1.74l-1.39.37c-.88.85-2.03.67-3.22.61l-2.92-.14c-3.31,2.31-7.43,2.41-11.56,3.05-.31-1.21-.88-1.93-1.63-2.15Z"/>
      <path class="cls-14" d="M74.31,197.11c-1.67.31-2.69-.84-3.78-1.33-1.06-.48-3.45-.33-4.51.04-1.42,1.25-2.7-.24-4.56-.25l-7.49-.04c-.6,0-1.35.23-1.47.48-.12.25.01.86.1,1.01l5.06.24,10.24,2.16c.4.08,1.4-.2,1.57.44.1.37-.12,1.13-.32,2.28l6.64-1.28c-.59-1-2.05-2.52-1.49-3.75Z"/>
      <path class="cls-4" d="M82.81,197.86c-.41-.28-.93,0-.98.43l-.15,1.12,1.5-.11c.14-.52.11-1.11-.37-1.44Z"/>
      <path class="cls-10" d="M8.36,204.95c-1.12-.18-1.29.72-1.31,1.35-.03.97.73,1.24,1.68,1.02.75.46,1.86.55,2.45-.13.34-.4.32-1.28.17-1.86-.74.35-2.13-.24-2.99-.38Z"/>
      <path class="cls-4" d="M26.08,144.76c-.56-1.61-1.51-2.96-1.41-4.46-.7-.17-1.85-1.17-1.02-1.72l2.44-1.64c.47-.31.98-1.13,1.55-1.5.24-4.65,1.98.22,8.25-.57,1.26-.16,2.84-1.11,4.46-.64,3.87,1.14,7.4.63,11.06.35,1.44-.11,2.86,2.57,2.47,3.63-.09.23.06.76.12,1.02l.53-.02c.41-.41,1.19-.48,1.78-.56l4.97-.71c1.65-2.03-.05-3.32-.38-5.52l-1.38-12.08c-2.98-2.59-3.61-8.46-6.62-7.98-1.98,2.16-4.91,2.83-7.76,3.06-1.84.15-1.27-3.23-5.25-2.52l.1.42c.12.52.14,1.68.56,2.01.97.7.1,2.02.08,2.82-.05,2.19,2.63,2.36,3.57,3.09,4.65,3.59,8.03-2.36,10.15,1.63.78,1.47.26,3.21-1.37,4.25-3.81,2.42-5.53-1.12-6.82-.59-1.64.67-.72,4.36-3.22,5.18-.9.3-2.03-.87-2.61-1.85-1.81-3.02-4.05-.49-5.34-1.05-.42-.18-1.12-.96-1-1.72l1.24-7.36c-1.53.29-2.76,1.41-4.38,0,2.76-.96,5.21-1.84,6.65-3.46v-1.7s-1.71-.02-1.71-.02l-2.91.07c-2.84,2.72-5.49-3.51-9.66.99-2.44-.44-4.27-1.94-6.35-2.9-2.23-1.03-4.08,1.05-4.43,3.16-.38,2.31-1.23,4.4.03,6.42,2.64-1.42,5.9-2.77,7.91-1.09l1.94,1.63c2.02,1.69,5.22-4.59,8.04-2.38l-6.42,3.9-2.05,3.61c-.45,1.01.95,3.71-.74,4.93-3.12,2.25-4.86,6.01-2.4,9.53l2.86-.68c1.36,2.86.95,5.58,1.21,8.76.16.87,2.69.87,3.23.69-.07-1.92.78-4.22.02-6.41Z"/>
      <path class="cls-12" d="M2.64,152.42l3.76-12.78c.93-3.15,4.13-6.24,6.67-8.04l6.05-4.31c1.22-.87,2.43-1.34,3.2-3.12-2.31,1.12-3.23.2-4.56.01-3.24-.45-6.31-1.1-9.95-.65-2.36-1.64-5.44-1.93-7.81-.49v11.12c1.27.08,2.85-.27,3.76-.74-.39,1.72-.63,4.27-1.7,5.64-.8.67-1.49,1.37-2.06,2.11v15.67c.52.2,1.14.36,1.73.49l.91-4.91Z"/>
      <path class="cls-11" d="M47.26,140.36c-.1-.5.14-.81.37-.88l1.03-.3c.26-.99,1.21-1.85,2.07-1.81,1.21.05,2.16.54,3.14.85.39-1.06-1.03-3.74-2.47-3.63-3.66.28-7.19.79-11.06-.35-1.62-.48-3.2.48-4.46.64.06.54.02,1.15-.28,1.55-.29.39-.88.59-1.34.84,1.33.85,1.85,2.71,1.32,3.58-.77,1.26-1.87,1.39-3.34,1.64-2,.34-3.88-.65-3.74-2.45.09-1.16,1.06-2.72,3.04-2.92-.47-.72-.39-1.38-.21-2-1.84.76-2.67.59-3.7.34-.57.37-1.08,1.19-1.55,1.5.45,1.44-.25,2.62-1.42,3.36-.09,1.5.86,2.86,1.41,4.46.76,2.19-.09,4.49-.02,6.41l.24,6.92c.11,3.35-.46,6.85,3.06,9.32.94-2.12,2.33-3.35,4.58-4.12l-1.28-7.91-2.75-5.83c1.88-1.03,3.72-3.69,5.96-4.2,2.54-.58,4.57-1.14,6.51-2.63,1.73-.1,4.59,1.18,6.56.39l-.98-2.3c-.19-.07-.65-.21-.7-.45Z"/>
      <path class="cls-11" d="M13.33,156.03l5.08,4.15c2.7-.3,3.79-5.13,2.89-6.9-1.05-2.06-3.44-2.7-5.44-2.7-1.84,0-3,1.08-3.42,2.33-.27.79-.19,2.24.89,3.12Z"/>
      <path class="cls-11" d="M8.32,150.26c-1.52,2.78-1.5,6.34.54,7.95l1.44,1.14c.39.31-.38.87-.54,1.17-.27.56.64,1.57.81,2.12l2.13.31.1-1.76c.08-1.09-.18-2.48-.8-3.7l-3.67-7.21Z"/>
      <path class="cls-12" d="M24.87,98.08c.1-.4.1-1.12.56-1.45-.22-.84.09-1.63,1.18-1.58.49.02,1.02-.02,1.19.73l2.22-.04c.95-1.09,2.55-2.42,4.47-2.12.85.13.97,1.69.82,2.2l4.44.48c.85.09,1.77-.78,2.8.6.89,1.2,2.76,1.67,4.04,1.13.81-.34,1.62-1.14,2.57-.98.54-4.35-1.41-9.14-.74-14.66-.22-.17-.38-.72-.38-.99l-1.75.13-.52.06c.06.92-.78,1.38-1.46,1.5.08,1.66-.65,2.73-2.73,2.45-1.34-.18-2.31-.62-1.88-2.33-.96.38-2.77,1.46-3.95-.05-.66-.85-1.6-2.88-3.03-2.4-1.96.66-4.09.25-4.93-1.25-1.4-2.49.02-4.48,1.5-5.06,2.63-1.03,4.57.06,5.3,2.16.84.13,1.46-.63,1.96-.9-1.36-1.31-2.76-3.33-5.14-3.5-2.19-.16-6.34,2.89-5.77,5.42.83,3.68,4.05,7.35,2.36,11.12-.53,1.17-3.19,2.14-2.9,4.72-2.2-1.76-3.37-3.04-4.97-2.21,0,.31-.06.66,0,.93.5-.12,1.34-.18,1.81.12.94.61,1.23,4.03-.65,4.99-.74.38-1.57-.42-2.42-.46l-3.78-.15-.07.75c0,1.12-.56,2.08-1.68,2.32l-.19,4.97,1.85.19c-.24-1.69-.22-3.86.28-5.77,2.32-1.03,6.01.84,6.28,3.42.22,2.15.17,3.7,2.34,4.07-.75-4.75-1.16-8.69.99-8.56Z"/>
      <path class="cls-5" d="M8.3,113.69c1.37-.02,2.14-.39,2.91-.74,3.46-1.63,4.29-4.43,3.77-8.04l-1.85-.19-.32,3.1c-.18,1.69-1.2,3.05-2.65,3.1-1.2.05-3.06-1.01-3.11-2.56l-.28-8.81-1.51-3.82c-.69,0-1.57.16-2.26-.02l-2.16,4.09c-.18.34-.48.5-.83.55v10.31c3.14.99,6.92-2.62,8.3,3.03Z"/>
      <path class="cls-2" d="M38.31,111.9l1.17-4.15c.21-.73.2-2.03.17-2.82-.01-.45.03-1.4.45-1.55.16-.06,4.31.61,4.26,2.15.78-.08,1.46.17,2.14.48l4.48,1.99c.22-1.57.72-3.13,2.28-3.16l-.68-1.51-1.68.03c-1.45.99-3.43.95-4.3-.49-.95-1.56-.74-3.3,0-4.87-1.29.54-3.15.07-4.04-1.13-1.03-1.38-1.95-.51-2.8-.6l-.03,1.25c1.59-.31,2.36,1.15,2.25,2.47-.13,1.68-1.62,1.76-2.99,2.03l-2.34.47c-.04,1.97,1.01,5.3-.23,7.35-1.89,2.65-6.6,2.04-9.24-.36-2.13-1.93-2.11-6.4-1.85-9.04l.17-1.69-.63-.69c-2.16-.13-1.75,3.81-.99,8.56.09.58.17,1.4.09,1.95.62.33.84,1.01.69,1.87l8.23,4.15,2.91-.07c-.11-1.41,1.89-1.85,2.51-2.63Z"/>
      <path class="cls-12" d="M3.68,112.02c1.34,3.25,5.56,3.86,6.8,3.01.47-.33.91-1.26.73-2.07-.77.35-1.53.72-2.91.74-1.38-5.65-5.16-2.04-8.3-3.03v4.15c1.41-.29,2.79-1.53,3.68-2.8Z"/>
      <path class="cls-12" d="M23.97,108.59c-.31.19-.79.66-.61,1.02.27.54.99.69,1.29.84.15-.86-.07-1.53-.69-1.87Z"/>
      <path class="cls-14" d="M107.52,153.12c-3.61-1.08-4.41-4.65-8.45-7.14,1.6-3.56,4.33,1.46,9.23,3.47-1.86-3.46-2.95-5.47-2.88-8.89l-6.97,3.67c-.63.83-.74,3.24-1.94,3.91-.84.47-2.1-.76-2.76-1.27-5.94,3.9-14.7,4.9-15.29-.11-6.3,0-11.21-7.17-14.4-5.85-.76.65-1.05,2.74-2.52,2.8,1.41,3.24,1.6,6.84,1.6,10.42l-3.27,1,.15-5.91c-1.56-.08-2.03.76-2.71,1.67-2.89,3.86-6.3.74-7.86,1.59-.63.34-1.33,1.72-1.23,2.74l.73,7.15c.14,1.39.83,2.67,2.04,2.53l.58-5.3c.09-.83,1.28-1.18,2.03-1.01.64.15,1.2.32,1.23,1.41.02.75-.3,1.56-1.01,3.16,5.89-.98,6.92-4.3,6.64-4.29.68-.03,1.88.51,2.01,1.01l.79,3.19c2.13-2.82.16-7.6,1.6-9.43,1.27-1.62,4.07.8,5.88-1.8,2.29-.75,5.61,1,7.12,2.37.13.44-.85,1.42-1.06,1.7-.28.37,1.01,1.18,1.69,1.55l-1.59,7.85c1.92-.24,4.14-.77,5.92-1.71l.93-1.81c.58-1.14,2.59,2.54,4.18,1.08l.31-10.86c3.88-3.06,10.08-3.4,13.75-.12,1.5,1.34,2.58,4.44,1.91,5.78l-2.25.58c-.64.16-.86,1.55-.5,2.29,2.22-1.15,4.36-2.68,6.89-3.2,1.74-.35,3.48.4,5.25.75,1.22-2.19.6-5.37,2.7-9.61v-.24c-5.02,1.33-7.18,5.28-8.48,4.89Z"/>
      <path class="cls-7" d="M41.09,187.5c2.62-.4,5.08.14,7.57.41-.28-.7-.04-2.02.54-2l2.55.11c4.89-1.14,9.96-.99,13.66,1.77l5.62.92c-.23-1.04.51-1.56,1.3-1.49,1.02.08,1.69.76,1.87,1.74.69-.38,1.44-.55,1.82-.99.61-.71.84-1.83.41-2.77-1.11-2.43-3.51-3.87-5.85-3.71.23.79.14,3.87-1.1,4.17-6.71.2-12.26-4-18.12-3.47,1.06-2.08,1.98-2.92,1.79-4.46l-1.4-.07-3.53-1.02c-.46-2.63-2.5-3.67-4.84-3.71-1.9,1.81-1.9,3.19-2.39,6.23l-2.38,4.45c1.86.33,3.01,2.26,2.47,3.87Z"/>
      <path class="cls-8" d="M51.1,169.63c1.79,2.11,4.26.76,5.21,2.05l2.83-.43c.43-2.29,4.44,1.1,11.25.36.46-.05.77.5.86.69,3.08-4.66-9.26-8.65-20.27-7.41-.05.44-.42,1.23-.74,1.53-.17,1.24.18,2.39.86,3.2Z"/>
      <path class="cls-5" d="M48.24,176.64l3.53,1.02c0-2.75,1.91-5.58,4.54-5.98-.95-1.29-3.42.06-5.21-2.05-.69-.81-1.03-1.96-.86-3.2l-6.84,6.51c2.34.03,4.39,1.08,4.84,3.71Z"/>
      <path class="cls-14" d="M1.74,207.45c1.66.24,3.4-1.82,4.14-2.82-2.65-3.56-4.54-6.97-5.88-11.08v6.12c.06.09.1.18.16.27-.06.09-.11.18-.16.27v6.32c.42.47.99.81,1.74.92Z"/>
      <path class="cls-2" d="M64.06,140.91c-.19-.84-.28-1.71-.72-2.27-.43-.55-1.4-.79-2.07-.69l-4.97.71-.09,1.08c-.03.39-.76.61-1.09.39-.23-.16-.5-.64-.59-.9l-.53.02c.41,1.77-.84,3.26-2.44,4.19.14.02.28.09.43.17,2.99-2.2,4.48.33,6.35.25l3.21-.14c1.47-.07,1.76-2.15,2.52-2.8Z"/>
      <path class="cls-14" d="M55.13,145.78l-2.15-1.82c-.67,1.38-.34,3.63-1.85,4.6l-1.66,1.07c-.36.23-.02,1.57.41,1.42,5.34-.14,10.11-4,8.82-5.68-.9.62-2.51,1.31-3.56.42Z"/>
      <path class="cls-6" d="M53.99,139.23c-.06-.26-.21-.79-.12-1.02-.98-.31-1.93-.8-3.14-.85-.86-.03-1.81.82-2.07,1.81.1.63-.1,1.31-.7,1.63l.98,2.3c.69-.27,1.94.2,2.61.32,1.61-.93,2.85-2.42,2.44-4.19Z"/>
      <path class="cls-11" d="M51.98,143.6l1.01.36,2.15,1.82c1.05.89,2.66.2,3.56-.42-.26-.34-.3-1.08-.36-1.51-1.87.08-3.36-2.45-6.35-.25Z"/>
      <path class="cls-14" d="M14.5,165.06c1.01-.81-.85-1.95-1.81-2.12l-2.13-.31c.42,1.35,2.3,3.75,3.94,2.43Z"/>
      <path class="cls-11" d="M49.73,35.76c.5-3.36,1.86-3.79,4.43-5.25,1.83-1.04,1.06-5.29,1.23-7.42.89.32,1.42,1.83,1.92,1.65l2.06-.76c.87-.32,1.44-.5,1.33-1.17-.12-.76-2.03-.74-2.05-2.24,0-.98,1.88-.09,3.64-.62.41-.12.65-.74.56-1.33-2.79.11-1.7-3.74-4.27-3.12.02,1.54-1.54,1.38-2.86,1.99l-2.06.95c-.62.28-1.55-.72-2.01-1.32h-1.34s-5.34,0-5.34,0l-5.12.98c-.5,2.05,2.37,1.89,2.78,3.25.09.3-.03.94-.33,1.03-.46.13-1.01-.24-1.75-.51-1.11-.4-1.75,2.07-1.48,3.15.77,3.03-.09,5.47-.15,8.11-.04,1.91,2.05,4.3.76,6.48.54-.16,1.19-.56,1.64-.9,1.6-1.23,7.99-.21,8.4-2.93Z"/>
      <path class="cls-12" d="M11.74,50.27c.28.78.63,1.45,1.29,1.34,2.09-.35-.4-3.17.74-4.53.89-1.06,4.18-.21,4.78-2.71.56-2.32-4.88-2.67-2.93-5.46,1.69,2.13,2.83,2.62,5.06,1.62-.25,1.82-.08,3.41,1.27,5.48.67-1.83,1.19-3.09,2.51-3.36,1.66-.34,3.14-.17,4.08,1.36-.98-.2-1.86-.06-2.06.54-.09.27-.19.87.52,1.05.9.23,2.62.2,3.16-.55,1.35-1.87,1.07-4.25.78-6.42,1.64.2,2.6,1.09,3.14.87,1.15-.47-.41-4.42.81-5.04,2.05-1.03.67,4.14,2.4,4.99.68.33,1.7.36,2.38.17,1.29-2.18-.81-4.57-.76-6.48l-3.81-1.54-2.52.93-3.03-1.3c.07.87.06,2.98-1.26,3.11-.41-.64-.8-2.55-2.16-2.44.08,2.68,1.37,5.48-.78,6.62-1.05.56-2.98.61-4.09-.09-1.43-.89-1.9-2.8-2.62-4.03h-.55s.21,3.5.21,3.5c-.62.14-1.67.16-1.94.03-.36-.16-.54-.64-.36-1.25-1.01-.23-3.14-.44-3.84-1.95-.1-1.09,1.99-3.18,1.11-4.64-.4-.66-2.04-.34-2.14.18-.29,1.49.5,3.29-.14,4.9-.21.53-1.11.86-1.84.21.03.32.08.97.1,1.26l.23,3.66c-1.12,3.24-1.63,6-1.21,9.09.98-.35,2.92-.61,3.46.88ZM13.46,40.94l1.03,4.27c-1,.39-1.72-.57-2.11-1.2-.71-1.16-.17-2.41,1.07-3.07Z"/>
      <path class="cls-5" d="M24.27,34.39c-1.22-1.08-2-1.41-2.91-1.64-1.41-.35-2.66.07-2.7,1.64.72,1.23,1.2,3.14,2.62,4.03,1.11.7,3.04.65,4.09.09,2.14-1.14.86-3.94.78-6.62-.84.07-1.47,1.45-1.88,2.5Z"/>
      <path class="cls-12" d="M47.26,13.27c1.54-.11,3,.43,4.46.85.02-.98-.46-1.8-1.75-2l-5.47-.82c-.42-.06-.8.64-.77.86.03.2.2.37.44.5.56.05,1,.43,1.44.65.4.2,1.21,0,1.64-.03Z"/>
      <path class="cls-5" d="M49.51,15.72c-.82,0-1.7-.27-2-.69-.31-.43-.3-1.25-.25-1.75-.44.03-1.24.23-1.64.03l-.63,3.8h5.34c.37-.54.17-1.38-.81-1.39Z"/>
      <path class="cls-5" d="M16.01,36.66c-.18.61,0,1.09.36,1.25.27.13,1.32.11,1.94-.03l-.21-3.5c-1.26-.01-1.95,1.12-2.09,2.28Z"/>
      <path class="cls-6" d="M15.54,29.02l2.72.32c.11.06.25.21.27.3.64.92,1.5-.2.72-.72l-.54-.39c-.01-1.64,1.9-1.09,1.68.2.46,1.12.98,2.24,1.8,2.57.34.14,5.06-2.9,6.03-6.94,1.58,2.05,4.94,2.15,5.97.88-1.76-4.59,3-7.49.34-8.55-3.31-1.32-6.57-1.44-6.01-3.89l2.08-1.65c.39-.31.24-1.9-.57-2.6l-2.92,3.2c-.83.91-1.64-1.22-1.08-1.76l1.33-1.28c.44-.42-.6-1.61-1.17-1.81-.54-.19-1.48.09-2.44.33-.59.13-.84-1.7-.42-2.33l-3-.8c.99,2.18.77,3.96-1.17,5.95l2.81.45c1.75.28-.15,6.96,5.28,10.52-2.51,3.21-6.62,4.43-10.48,3.98-.2.83-.54,1.44-.86,1.74-.42.39-1.29.45-1.76.26.07,1.11.67,1.92,1.39,2Z"/>
      <path class="cls-2" d="M1.23,70.41c.65-.29,1.77.01,2.04.57.33-.28.84-.46,1.25-.63.2-.64.53-1.37.91-1.72.6-.54,1.48-.52,2.1-.34-.06-.19.03-.55.03-.73-.93-4.08-.83-8,1.35-7.75l.04-1.57c-1.74.3-1.65-1.14-1.54-2.5.08-1.02.04-2.05,1.47-1.88l-.6-4.47c-.41-3.09.09-5.85,1.21-9.09l-.23-3.66c-.83-.66-1.75-.85-2.69-.43-.93.41-1.3,1.28-.6,2.18l1.77,2.32c-1.35.26-3.67.1-4.83-1.05-2.27-2.24-2.54-4.36-2.91-6.11v8.08c2.96,1.75-1.61,5.43,1.34,9.03l2.49-6.26c.92,2.65,1.58,5.51.68,7.93-1.1.7-3.32,1.1-3.6,2.28-.88,3.77.34,6.46-.9,7.81,0,0-.01,0-.02.01v9.86c.14-.05.27-.09.39-.13.04-.67.36-1.54.84-1.75Z"/>
      <path class="cls-3" d="M95.91,30.62c-1.12.49-1.47,2.1-1.5,3.37-.03,1.19,1.78,1.37,2.51,3.27-2.6.07-4.53-.56-6.66.77,1.84,2.72,2.84,5.06,2.69,7.76l3.35,4.08c2.64.03,4.04,1.8,4.08,4.09.33.09.54.45.75.59.89.58,1.51,1.5,3.11,1.74-.02-2.62-1.55-3.89-2.33-6.03,7.63,2.84,3.79,8.61,7.43,5.21,3.28,5.85.21,9.53.92,13.28.21,1.11-.12,2.55-.31,3.67,2.15-1.22,3.81-1.12,6.05-1v-39.09c-5.27-3.15-9.91-2.26-14.7-4.27l-5.39,2.54ZM101.93,31.28c.46,0,.83.37.83.84s-.37.84-.83.84-.83-.37-.83-.84.37-.84.83-.84Z"/>
      <path class="cls-4" d="M77.47,22.8c-.12.71-.75,1.57-1.39,1.18-.73-.45.17-3.14-4.53-3.3-1.45-.05-2.25.38-3.5,2.2l-.09-2.26c-.01-.25-3.22-2.07-5.1-2,.09.58-.16,1.2-.56,1.33-1.76.53-3.65-.36-3.64.62.01,1.51,1.92,1.49,2.05,2.24.11.67-.46.85-1.33,1.17l-2.06.76c-.51.19-1.03-1.33-1.92-1.65-.17,2.13.6,6.38-1.23,7.42-2.57,1.47-3.93,1.89-4.43,5.25-.4,2.72-6.79,1.71-8.4,2.93,0,1.41.13,2.83,1.37,4.28.9-1.03.94-1.67,1.38-2.79l3.13,2.98,5.76-2.95c.93-1.29,2.04-1.43,3.67-2.47,2.94-1.88,4.97-5.21,8.78-6.17,1.21-.3,3.31.26,4.18-.25,2.19-1.27,4.59-1.48,7.04-.73.95-.95,1.77-2.13,3.24-2.4l-.57,3.89,6.01-.26c2.58.61,4.93,1.33,7.4,3.4l-6.42,2.12c-2.18.72-4.57,1.34-7.06.78-.39-.34-.13-1.31.2-2.31-2.77.73-4.69.99-7.73.78l1.49,4.66c-1.69.99-3.14,1.3-5.05,1.55-2.15.28-4.35-.79-4.5-3.13,2.82.56,5.32-.09,6.47-2.3l-2.08-.84c-.47-.19-.66-.91-.47-1.5l-5.25.13c-1.61.04-2.26,1.35-2.65,2.31.3.82.94,1.84.92,2.97-.03,1.19-1.63,1.31-2.48,1.38l-1.29.11c.13,2.53-.34,4.99.5,8.04l6.59-.71c.65,1.01.51,2.25.66,3.21.18,1.19,1.56,1.65,2.19,2.35,2.7-.56,5.02-1.07,8.06-.76-.04-1.47.29-2.75,1.12-3.26.59-.36,2.11.13,3.01-1.7l-7.58-.97c1.89-1.7,3.72-1.41,5.85-1.76-.83-1.3-1.45-2.07-1.64-3.88,2.23-.02,3.83.38,5.61,1.37-1.57,1.11-2.56,1.05-3.4,2.7,6.24-1.43,8.51,3.94,13.18,2.44-1.11-1.97-1.23-3.55-.66-4.9,1.38.62,2.16,1.11,2.64,1.7.15-2.69-.85-5.04-2.69-7.76,2.13-1.34,4.06-.7,6.66-.77-.73-1.9-2.54-2.08-2.51-3.27.03-1.27.38-2.87,1.5-3.37l5.39-2.54c-.7-.29-1.37-1.44-2.84-1.56-2.02-.16-3.92-.65-5.64-1.64-3.19,2.11-10.76.24-10.88.01-.23-.44-.27-1.18-.23-1.71-1.22-.06-2.8-.83-4.24-.39ZM56.95,35.94c-.46,0-.83-.37-.83-.83s.37-.83.83-.83.83.37.83.83-.37.83-.83.83ZM57.42,32.96c-.25-1.95-.22-3.95.7-6.19,1.71,1.24,2.06,4.44-.7,6.19Z"/>
      <path class="cls-4" d="M109.95,72.43c-.3,1.82-.35,3.61-.08,5.43.25-.03.75.02.99-.05,1.72-.87,3.5-.52,5.14.08v-6.46c-2.24-.13-3.9-.23-6.05,1Z"/>
      <path class="cls-6" d="M109.45,85.49c.09-.78.03-1.76-.16-2.67-.17-.81-1.48-.95-2.2-.41-.49.31-1.1.79-1.27,1.36-.19.6,1.22,1.76,1.31,2.46.82,6.66-10.48,8.59-3.48,9.86-1.24.56-2.1,1.42-2.07,2.73,1.1-.1,2.13-.28,3.15-.66l4.58-6.19,1.6-4.23c-1.18-.14-1.58-1.14-1.45-2.24Z"/>
      <path class="cls-9" d="M111.78,87.67l-.89.06-1.6,4.23c.97,2.42,3.57,3.08,5.61,2.78.4-.06.76-.16,1.09-.28v-6.73c-1.32-.29-2.8-.14-4.22-.05Z"/>
      <path class="cls-7" d="M113.14,81.71c-.2.97-.42,3.67.93,4.06.68.19,1.32.35,1.92.53v-5.31c-1.13-.16-2.19.03-2.86.72Z"/>
      <path class="cls-7" d="M114.65,102.61c.04,1.1.59,1.96,1.35,2.58v-5.2c-.8.71-1.39,1.69-1.35,2.62Z"/>
      <path class="cls-1" d="M105.51,80.74c.44.66,1.1.8,1.69.73.12-.85.77-1.09,1.28-1.35.76-.4,2.14-.22,2.29.71.33,1.99.12,3.88-1.34,4.67-.13,1.1.27,2.09,1.45,2.24l.89-.06-.07-6.65-.85-3.21c-.24.07-.74.02-.99.05l-1.15.12c-1.54.16-2.24,1.93-3.2,2.75Z"/>
      <path class="cls-8" d="M113.14,81.71l-1.43-.69.07,6.65c1.42-.09,2.9-.24,4.22.05v-1.43c-.6-.18-1.25-.34-1.92-.53-1.35-.39-1.13-3.09-.93-4.06Z"/>
      <path class="cls-2" d="M47.26,13.27c-.05.5-.06,1.32.25,1.75.3.42,1.19.68,2,.69.98.01,1.18.85.81,1.4h1.34s.06-3,.06-3c-1.47-.42-2.92-.95-4.46-.85Z"/>
      <path class="cls-12" d="M88.33,140.21c-2.09-3.01-3.65-6.24-3.89-9.67l-1.31-.29c.06.47-.52,1.1-1,.91-.39-.16-.95-.76-1.13-1.25-.17-.47.49-.79.68-1.09.23-.53.06-1.58.03-2.25l-4.89,3.06c-.97.51.33,2.31.95,2.91.64.62,1.79,1.02,3.33,1.02.75,0,.93,2.12.66,3.2-.18.72-1.6.78-2.52,1.74,1.38,1.73,3.42.47,4.71.94,1.73.63.76,3.69-.23,4.49-2.06,1.67-11.43-.37-12.18-6.41l-3.17-1.48c.39-7.01-4.46-7.98-3.76-11.28l-5.1-4.43,1.38,12.08c.33,2.2,2.03,3.49.38,5.52.67-.1,1.64.15,2.07.69.44.56.53,1.44.72,2.27,3.18-1.32,8.1,5.85,14.4,5.85h6.19c1.36,0,1.88-.7,2.54-1.02-2.96-.82.3-1.92,1.15-5.53Z"/>
      <path class="cls-5" d="M90.14,133.38c-.53-1.56-1.31-2.5-2.03-3.08-1.26-1.01-2.7-.88-3.67.24.23,3.42,1.8,6.65,3.89,9.67-.84,3.61-4.11,4.7-1.15,5.53.69-.33,1.61-.72,2.21-1.23-.17-1.56.45-2.89,1.4-4.39.94-1.48.66-4.2,1.94-5.33,1.39-1.23,4.04-.76,5.39-.6l1.52-8.96c-5.14-1.95-2.05,5.33-9.5,8.14Z"/>
      <path class="cls-2" d="M114.78,168.22c-.83,2.33-3.06,4.04-5.33,4.79,0,.35-.05.65,0,.96,1.2-.2,2.82-.58,4.21.17.45.24.3,1.62.19,1.85.81-.08,1.51-.23,2.16-.4v-10.66c-1.19.51-2.45.9-3.75.79.2,1.02.97,1.79,2.52,2.5Z"/>
      <path class="cls-12" d="M92.73,134.79c-1.28,1.13-1,3.85-1.94,5.33-.95,1.5-1.56,2.83-1.4,4.39,3.47.1,6.27-3.35,8.46-6.23l2.66-3.51c-1.03.38-1.79-.49-2.39-.57-1.34-.17-3.99-.63-5.39.6Z"/>
      <path class="cls-6" d="M113.17,176.07c.05.37.08.83-.01,1.15-.09.32-.59.64-1.09.39-.27-.13-.51-.52-.47-.96l-2.81.84c-.36,1.81.35,2.82,1.74,3.34,1.48.56,2.56-1.24,3.45-1.38.69.04,1.37.06,2.03.07v-3.93c-.65.17-1.34.31-2.16.4l-.67.07Z"/>
      <path class="cls-6" d="M104.32,160.94c-.4,1.08-.64,3.49,1.25,3.1.56-.22,1.54-1.34,2.09-1.15.63.21.88,1.09.93,1.61.7-.19,1.41-.72,2.17-.59.32-1.67,1.41-3.05,2.54-4.25-.03-.44-.14-1.18,0-1.56-1.77-.35-3.51-1.1-5.25-.75-.04,2.32-2.99,1.61-3.72,3.6Z"/>
      <path class="cls-5" d="M114.4,161.5c-.56.03-1.48.31-1.85.87-.27.41-.24,1.27-.08,1.81l-.86,1.49.64.06c1.3.12,2.56-.27,3.75-.79v-1.62c-.33-.74-.88-1.35-1.6-1.82Z"/>
      <path class="cls-1" d="M112.47,164.18c-.16-.54-.19-1.4.08-1.81.37-.56,1.28-.83,1.85-.87-.31-.47-.53-1.44-1.1-1.85-1.13,1.2-2.22,2.58-2.54,4.25l1.71.27Z"/>
      <path class="cls-1" d="M42.96,195.07c4.18-2.52,8.36-1.28,12.46-1.84,2.56-.35,3.8-.22,6.13.81,1.23.54,3.85-.08,4.47,1.79,1.06-.37,3.45-.52,4.51-.04l.78-3.61-7.59-3.15-8.89-.45-6.16-.67c-2.49-.27-4.96-.81-7.57-.41-.8,2.4-.83,4.49.35,7.15l.92,5.06c1.91.59,4.34.54,5.89,1.55,2.44,1.59,9.64,1.37,11.1-1.23-.41-.81-1.72-1.87-1.69-2.77l-5.06-.24c-3.08-.15-6.1-.75-9.64-1.95Z"/>
      <path class="cls-8" d="M59.12,177.24c-.51-.22-1.66-.35-2.18-.17-1.1.38-2.52.74-3.77.67.18,1.54-.73,2.39-1.79,4.46,5.85-.52,11.4,3.68,18.12,3.47,1.24-.3,1.33-3.39,1.1-4.17l-1.83-1.62c-3.2-.22-6.75-1.37-9.63-2.64Z"/>
      <path class="cls-7" d="M100.55,173.96l.71-3.07-2.11.91-4.61,3.66c-1.51,1.2-1.75,3.02-1.09,4.36.96,1.95,3.07,2.12,4.92.98l11.09-6.82c-.06-.31,0-.61,0-.96-5.01,1.67-9.59,3.93-8.9.95Z"/>
      <path class="cls-11" d="M92.4,188.75c-.6,1.72.45,3.23,2.21,3.75.75.22,1.32.94,1.63,2.15,4.13-.64,8.25-.74,11.56-3.05-2.16-.1-4.46,1.17-6.98-.35l3.91-3.79c-3.52.05-5.39,1.92-8.21,3.13-1.24-1.32-1.13-3.18-.47-4.71-1.53.33-3.05,1.13-3.65,2.86Z"/>
      <path class="cls-1" d="M97.64,167.24c2.34,1.61,4.83.26,7.2-.82-.23-.6.1-1.54.57-1.5l1.35.09,1.83-.51c-.05-.52-.3-1.4-.93-1.61-.55-.18-1.53.93-2.09,1.15-1.89.39-1.65-2.02-1.25-3.1.73-1.99,3.68-1.28,3.72-3.6-2.53.51-4.67,2.05-6.89,3.2-2.65,1.37-4.5,3.63-3.51,6.7Z"/>
      <path class="cls-14" d="M63.71,189.03c.23-.8.89-1.11,1.7-1.24-3.7-2.77-8.76-2.91-13.66-1.77l-2.55-.11c-.58-.02-.82,1.3-.54,2l6.16.67,8.89.45Z"/>
      <path class="cls-14" d="M108.59,164.5l-1.83.51c-.14,1.22-1.22,1.1-1.91,1.41-2.37,1.09-4.86,2.43-7.2.82.1.32-.09.8-.35.88-.51.15-1.44-.17-2.45.91l4.31,2.77,2.11-.91,5.46-3.46c1.62-1.03,3.24-1.9,4.89-1.76l.86-1.49-1.71-.27c-.76-.13-1.47.4-2.17.59Z"/>
      <path class="cls-14" d="M68.93,175.54l-7.58-.9c-.78-.09-1.89-.01-2.15.41-.34.56-.21,1.53-.08,2.18,2.88,1.27,6.43,2.42,9.63,2.64l.17-4.33Z"/>
      <path class="cls-14" d="M74.73,161.52c.49-2.14.64-3.36.35-4.78-1.65-.31-3.98-.77-5.05.18-.98.87-1.12,2.87-1.34,4.18,2.06.88,4.05,1.05,6.04.42Z"/>
      <path class="cls-14" d="M55.3,173.31c1.76-.09,2.82-.48,3.79-.89l.06-1.18-2.83.43c-2.63.4-4.54,3.23-4.54,5.98l1.4.07c1.25.07,2.67-.3,3.77-.67.37-1.56-.1-2.72-1.64-3.75Z"/>
      <path class="cls-5" d="M66.72,173.65c1.64.26,3.52.17,4.53-1.35-.09-.19-.39-.74-.86-.69-6.8.74-10.81-2.65-11.25-.36l-.06,1.18,7.63,1.23Z"/>
      <path class="cls-10" d="M74.31,197.11c.99-2.18-1.19-4.19-3-4.94l-.78,3.61c1.09.49,2.11,1.64,3.78,1.33Z"/>
      <path class="cls-14" d="M78.76,170.55c1.05-1.82-2.1-.35-6.55,1.86,1.25,1.84,6.79-2.26,6.55-1.86Z"/>
      <path class="cls-14" d="M74.21,188.97c-.19-.98-.86-1.66-1.87-1.74-.79-.06-1.53.45-1.3,1.49.62.1,1.07.78,1.98.83.47.02.74-.33,1.19-.58Z"/>
      <path class="cls-1" d="M112.07,177.61c.5.25,1-.08,1.09-.39.09-.33.06-.78.01-1.15l-1.57.59c-.03.44.21.82.47.96Z"/>
      <path class="cls-2" d="M103.64,96.08c-7-1.27,4.3-3.2,3.48-9.86-.09-.7-1.5-1.86-1.31-2.46.18-.56.78-1.04,1.27-1.36l.13-.94c-.6.07-1.26-.07-1.69-.73-5.22,4.46-3.43,9.82-6.74,9.06.89-4.08,1.06-8.06.28-11.76-1.02.43-1.19,2.23-1.08,3.22.39,3.45-1.7,4.66-2.72,7.06l-4.6,10.84c1.17.33,1.68.63,1.89.96-.04-.06-.07,6.55-1.84,9.14-6.1,1.21-5.55,7.22-8.64,2.91-2.35,1.5-4.59,2.35-7.14,2.41l.02,3.23c1.07.18,2.18,1.12,3.61.57,1.12-.43,2.17-1.09,3.95-.8l-.82,3.85c2.02-.31,3.75-1.67,5.17-2.9-.1-1.89.8-2.91,2.64-3.65,3.57-1.43,6.4-8.5,7.15-5.76.6,2.19-2.13,3.27-2.38,4.34-1.24,5.34-6.72,12.16-12.1,12.44-.04.25-.28.52-.43.69.03.67.2,1.72-.03,2.25.71.29,1.2.79,1.44,1.43l1.31.29c.97-1.12,2.41-1.26,3.67-.24.72.58,1.49,1.52,2.03,3.08,7.45-2.81,4.36-10.09,9.5-8.14l-.04-.77c-.52-1.64-2.74-1.23-3.3-1.85-.9-1,.9-2.26,2.03-2.59l3.08-.88c-1.69-.7-2.09-2.03-1.98-3.72l.57-8.88c.29-4.54-1.71-7.9,1.54-7.74-.03-1.31.83-2.17,2.07-2.73ZM96.41,102.72c-.61.17-1.9.13-2.33-.57-.06-.1.05-8.44,2.19-8.13,3.29.48,1.68,8.26.14,8.7Z"/>
      <path class="cls-2" d="M112.56,118.37c-1.84-.94-3.04.4-4.6.47.71,1.92.73,3.77-.46,5.39,2.61-.08,3.48-1.6,6.85-.61.07-.79-.75-2.43-.16-3.54.36-.67,1.03-.98,1.81-1.08v-1.93c-.77-.25-1.53-.62-2.28-1.23l-1.16,2.54Z"/>
      <path class="cls-15" d="M96.31,122.62c.55.62,2.78.21,3.3,1.85l7.89-.24c1.19-1.62,1.17-3.46.46-5.39l-6.53.31-3.08.88c-1.13.32-2.93,1.58-2.03,2.59Z"/>
      <path class="cls-15" d="M114.19,120.08c-.59,1.11.24,2.76.16,3.54l1.65.48v-5.11c-.78.11-1.46.41-1.81,1.08Z"/>
      <path class="cls-6" d="M101.66,183.33c-.9.52-.75,2.26-.12,2.62-.2-.11,5.18-.58,5.59-2.08.31-1.14.6-2.01-.22-3.58l-5.26,3.03Z"/>
      <path class="cls-11" d="M113.94,191.14c-.24-.86-1.12-.93-1.9-.87-.83.07-1.34.53-1.33,1.48,1.19.06,2.34.24,3.22-.61Z"/>
      <path class="cls-11" d="M116,182.94v-.93c-.44.19-.5.74,0,.93Z"/>
      <polygon class="cls-11" points="110.67 189.22 110.18 189.24 110.67 189.25 111.17 189.25 111.66 189.24 111.17 189.22 110.67 189.22"/>
      <polygon class="cls-11" points="111.42 183.97 110.93 183.99 111.42 184 111.92 184 112.41 183.99 111.92 183.97 111.42 183.97"/>
      <polygon class="cls-11" points="113.18 183.24 113.66 183.25 114.17 183.25 114.66 183.24 114.17 183.22 113.66 183.22 113.18 183.24"/>
      <path class="cls-10" d="M61.55,194.04c-2.33-1.03-3.57-1.16-6.13-.81-4.1.56-8.28-.68-12.46,1.84,3.54,1.19,6.56,1.8,9.64,1.95-.09-.14-.22-.76-.1-1.01.12-.25.87-.48,1.47-.48l7.49.04c1.86.01,3.15,1.51,4.56.25-.62-1.87-3.25-1.25-4.47-1.79Z"/>
      <path class="cls-5" d="M3.42,88.96c2.32-.19,3.7.84,3.6,3.09l4.1.89c.11-.51.46-1.03.7-1.51-1.12-.56-2.35-1.46-3.36-2.47-.1-4.37.39-8.35-1.23-13.12.56.25,1.08-.03,1.68-.1v-1.64c-1.15.32-1.12-.82-1.96-1.98-.78.34-2.1.64-2.47.09-.36-.53-.16-1.44.02-1.86-.41.17-.92.34-1.25.63-.54.47-.88,1.29-1.4,2.31-.44.26-1.34-.73-1.47-1.12-.12.04-.25.08-.39.13v19.7c.18-2,1.74-2.89,3.42-3.03ZM.34,82.13l.63-7.3c2.81,1.49,2.39,6.69,1.33,7.93-.45.52-2.05.36-1.96-.63Z"/>
      <path class="cls-6" d="M.92,54.61c.27-1.18,2.5-1.58,3.6-2.28.9-2.42.23-5.28-.68-7.93l-2.49,6.26c-2.94-3.6,1.62-7.28-1.34-9.03v20.8s.01,0,.02-.01c1.24-1.35.02-4.04.9-7.81Z"/>
      <path class="cls-6" d="M.83,99.81l2.16-4.09c-1.46-.37-2.69-1.15-2.99-2.4v7.04c.35-.05.65-.22.83-.55Z"/>
      <path class="cls-11" d="M30.85,119.72c1.62,1.41,2.85.29,4.38,0l-1.24,7.36c-.13.75.58,1.53,1,1.72,1.29.56,3.53-1.98,5.34,1.05.58.97,1.71,2.14,2.61,1.85,2.5-.82,1.58-4.51,3.22-5.18,1.29-.53,3.01,3.01,6.82.59,1.64-1.04,2.16-2.78,1.37-4.25-2.13-3.99-5.5,1.96-10.15-1.63-.94-.73-3.62-.9-3.57-3.09.02-.79.89-2.12-.08-2.82-.83.71-2.19.71-3.04.94-1.45,1.62-3.9,2.51-6.65,3.46Z"/>
      <path class="cls-5" d="M74.93,125.25c-.9-1.66-3.05-2.14-5.06-2.16l-4.76-.06c-1.63-.02-2.45-.8-2.77-2.24-.23-1.02.21-2.45,1.72-2.85l3.85-1.03c2.25-.6,4.7.5,7.03.89l-.02-3.23-.74.02c-.61.02-1.33-.07-1.49-.76l-3.87.03c-1.5.01-3.26-.02-4.88-.92-1.05-.58-1.09-2.09-.93-2.91l-2.27.13-.8.75c.07,2.97-3.89.19-6.67-6.06-1.56.03-2.06,1.59-2.28,3.16,1.72.77,2.84,2.7,1.92,4.36,3.01-.48,3.63,5.39,6.62,7.98l5.1,4.43,10.32.48Z"/>
      <path class="cls-14" d="M51.15,112.15c-.74-3.75-5.46-2.78-4.66-6.15-.68-.3-1.36-.55-2.14-.48-1.58.16-3.14-.18-4.71-.6.02.79.03,2.09-.17,2.82.64.21,2.31.75,2.39,1.58.17,1.63-1.31,2.69-1.98,3.56,3.98-.71,3.41,2.67,5.25,2.52l.02-3.01,6-.25Z"/>
      <path class="cls-11" d="M50.98,108l-4.48-1.99c-.81,3.37,3.91,2.4,4.66,6.15l-6,.25-.02,3.01c2.85-.23,5.78-.9,7.76-3.06.92-1.66-.2-3.59-1.92-4.36Z"/>
      <path class="cls-11" d="M39.48,107.75l-1.17,4.15c-.62.78-2.62,1.23-2.51,2.63l1.71.02c.71-.61,1.56-1.02,2.48-1.25l-.1-.42c.67-.87,2.15-1.93,1.98-3.56-.09-.84-1.75-1.37-2.39-1.58Z"/>
      <path class="cls-14" d="M27.64,135.44c1.04.25,1.86.43,3.7-.34-.18.62-.26,1.29.21,2,.91-.09,2.17-.09,2.72.15.46-.25,1.05-.45,1.34-.84.3-.4.34-1.01.28-1.55-6.26.79-8-4.08-8.25.57Z"/>
      <path class="cls-14" d="M24.67,140.3c1.17-.74,1.88-1.92,1.42-3.36l-2.44,1.64c-.83.56.32,1.56,1.02,1.72Z"/>
      <path class="cls-14" d="M37.5,116.26c.85-.23,2.21-.23,3.04-.94-.42-.32-.43-1.49-.56-2.01-.93.23-1.77.64-2.48,1.25v1.7Z"/>
      <path class="cls-12" d="M55.11,140.11c.33.22,1.06,0,1.09-.39l.09-1.08c-.58.08-1.37.15-1.78.56.09.27.35.75.59.9Z"/>
      <path class="cls-2" d="M31.55,137.11c-1.98.2-2.96,1.77-3.04,2.92-.13,1.79,1.74,2.79,3.74,2.45,1.47-.25,2.57-.39,3.34-1.64.53-.87,0-2.73-1.32-3.58-.55-.24-1.81-.24-2.72-.15Z"/>
      <path class="cls-2" d="M47.26,140.36c.05.24.51.38.7.45.6-.32.81-1,.7-1.63l-1.03.3c-.23.07-.47.38-.37.88Z"/>
      <path class="cls-14" d="M10.79,71.79c.21-.47.32-1.73,1.14-2.26.68,1.18,3.14,1.19,2.94.43-.41-1.66-.63-2.49-.3-3.44.31-.89,1.97-1.29,2.37-.62,1.13,1.91-.54,3.3-1.37,5l4.06-1.27c.65.4.59,2.25.56,2.97.7-.34,1.46-.7,1.95-.56.54.15.34,1.68.49,2.08.32.86-.08,2.34-.97,2.01l-1.53-.57-1.14,2.33c-1.45-.7-2.75-.65-3.68-.22-1.78.82-.87,4.08-3.43,3.83-1.2,3.09-.72,9.51,1.9,9.02,2.23-.68,4.49-.78,6.33.73,1.61-.83,2.77.45,4.97,2.21-.29-2.58,2.37-3.54,2.9-4.72,1.7-3.77-1.53-7.43-2.36-11.12-.57-2.53,3.58-5.58,5.77-5.42,2.38.17,3.78,2.19,5.14,3.5.86-.29,2.17.12,3.08.03l.83-.08c-.27-.65.06-1.39.51-1.48.68-.15,1.6-.02,2.05.1.75-.18,1.28-.96,1-1.78-.14-.41-.66-.86-1.03-1.2-2.07-1.18-3.93-1.45-6.57-2.31-1.09-.35-2.89-2.71-4.47-1.13-.61.61-1.28,1.44-2.32.91-.87-.44.58-3.26-.72-3.94-1.8-.95-.77,3.73-1.66,4.64-.53.55-1.71.88-3.02,1.55-1.68.86-3.44-2.03-3.1-3.6.25-1.17,2.25-3.22,3.35-2.49.79.61,1.5,1.23,2.1.91.61-.33.36-1.13.12-1.96-.25-.88-.7-2.21-1.41-1.68l-2.07,1.52c-.64-2.1-.91-4.85-.51-7.34.17-1.1,2.35-1.32,3-.82,1.74,1.36,1.05,4.49,2.36,4.51.43,0,1.59-.41,1.72-1.2.32-1.94-1.07-3.57-2.13-5.55l5.04-1.76c.35-3.57,2.98-3.69,5.71-4.43,1.1-.3,2.11-2.47,3.17-2.44,1.24.03,2.24.4,3.3.89.2-1.07,1.38-1.88,2.36-2.38l-3.13-2.98c-.44,1.12-.48,1.76-1.38,2.79-1.24-1.45-1.36-2.87-1.37-4.28-.45.34-1.1.74-1.64.9-.67.2-1.7.16-2.38-.17-1.74-.84-.36-6.02-2.4-4.99-1.22.62.35,4.57-.81,5.04-.54.22-1.5-.67-3.14-.87.29,2.18.56,4.56-.78,6.42-.54.75-2.26.78-3.16.55-.7-.18-.6-.77-.52-1.05.2-.61,1.08-.74,2.06-.54-.94-1.53-2.42-1.7-4.08-1.36-1.32.27-1.83,1.53-2.51,3.36-1.35-2.07-1.52-3.66-1.27-5.48-2.23,1.01-3.37.52-5.06-1.62-1.95,2.8,3.49,3.14,2.93,5.46-.6,2.51-3.89,1.65-4.78,2.71-1.14,1.36,1.35,4.18-.74,4.53-.67.11-1.01-.56-1.29-1.34-.54-1.48-2.47-1.23-3.46-.88l.6,4.47.07,4.38-.04,1.57.05,6.07c0,1.11-.69,1.69-1.4,1.68,0,.18-.09.54-.03.73l1.35,4.21c.64.1,1.64-.14,1.9-.71ZM20.95,47.41c.34-.3,1.25-.2,1.26.69l.05,6.31-3.64-.89c-.71-.18-.62-.92-.36-1.37.76-1.33,2.35-.95,2.68-1.71.32-.74-1.2-1.95,0-3.03ZM17.74,47.87c.57-.09,1.74.76,1.96,1.32-1.88.41-2.5.18-3.09-.03-.06-.38.7-1.22,1.13-1.29Z"/>
      <path class="cls-1" d="M59.92,110.91c-.86.09-1.48-.41-1.37-1.19.08-.6.22-1.26.85-1.7l3.62-2.53.11-2.19c-1.07.36-1.74-.28-1.73-1.09l.04-2.65c.02-1.32-1.43-2.28-.99-4.25,2.59,1.77,4.66,2.02,6.92,2.04h1.6c.02-.48.2-1.24.04-1.85-.12-.45-1.14-.58-1.58-.41-.82.32-1.68.36-2.58.28-3.95-.35-.62-4.98-.47-9.43-3.09.08-5.6,4.97-5.88,2.7l-.25-2-3.49.18c-1.46.08-2.48-.2-3.2-1.45l-1.36-1.36c-.56-.56-1.17-1.16-1.79-1.64-.67,5.52,1.28,10.31.74,14.66l1.1.19c.94-.73,2.32-1.42,3.21-1.14,1.55.48,1.96,1.97,2.01,3.5.07,2.22-1.01,3.72-2.91,3.75l.68,1.51c2.78,6.26,6.74,9.04,6.67,6.06Z"/>
      <path class="cls-6" d="M13.61,97.87c.13-.41.78-.72,1.38-.44l.07-.75c-1.07-.04-1.93-1.13-3.65-.97-.33-1.1-.35-1.98-.28-2.77l-4.1-.89c-.25,1.33-.96,2.53-1.77,3.68l1.51,3.82.28,8.81c.05,1.55,1.92,2.61,3.11,2.56,1.45-.06,2.47-1.42,2.65-3.1l.32-3.1.19-4.97c.02-.52.08-1.19.3-1.89Z"/>
      <path class="cls-13" d="M11.41,95.71c1.72-.15,2.58.93,3.65.97l3.78.15c.95-1.49,1.56-3.01,1.26-4.65-.05-.27,0-.62,0-.93-1.84-1.51-4.1-1.41-6.33-.73l.02,1.06c.01.58-.01,1.61-.76,2.02-.5.28-1.41-.55-1.93-.66-.07.78-.04,1.66.28,2.77Z"/>
      <path class="cls-8" d="M45.66,76.65c-.31-.52-1.48-.95-2.1-.96l-3.1-.04-.83.08c-.14,1.23-.77,2.7-.5,4.3.23,1.42,1.96,1.94,2.96,2.13.37.08,1.02.24,1.38.13l2.3-.71.52-.06c.88-1.63.06-3.32-.63-4.88Z"/>
      <path class="cls-13" d="M34.59,76.61c-.73-2.1-2.67-3.19-5.3-2.16-1.48.58-2.9,2.57-1.5,5.06.84,1.5,2.97,1.91,4.93,1.25,1.26-1.04,1.99-2.53,1.87-4.15Z"/>
      <path class="cls-5" d="M39.12,80.04c-.26-1.6.36-3.07.5-4.3-.9.09-2.22-.32-3.08-.03-.5.27-1.12,1.03-1.96.9.12,1.62-.6,3.11-1.87,4.15,1.44-.48,2.37,1.55,3.03,2.4,1.18,1.51,2.98.43,3.95.05.82-.32,1.75-.32,2.38-1.05-1-.2-2.73-.71-2.96-2.13Z"/>
      <path class="cls-13" d="M33.9,96.65c-.36.21-.71,1.04-.71,1.46v2.17c.46,1.45,2.05,2.5,3.45,2.22l2.34-.47c.67-1.43.91-2.97.73-4.5l.03-1.25-4.44-.48-1.41.84Z"/>
      <path class="cls-13" d="M49.16,97.04c-.95-.16-1.76.64-2.57.98-.74,1.56-.95,3.31,0,4.87.87,1.43,2.86,1.47,4.3.49l-.63-6.14-1.1-.19Z"/>
      <path class="cls-14" d="M48.26,74.07c.08-1.48,0-3.22-.99-4.46-1.01.58-1.6,1.28-1.57,3.01l-.04,4.03c.69,1.56,1.51,3.25.63,4.88l1.75-.13-.06-1.93.28-5.39Z"/>
      <path class="cls-2" d="M18.85,96.84c.84.03,1.68.83,2.42.46,1.88-.95,1.59-4.37.65-4.99-.47-.31-1.3-.24-1.81-.12.3,1.64-.32,3.16-1.26,4.65Z"/>
      <path class="cls-2" d="M33.9,96.65l1.41-.84c.15-.5.03-2.06-.82-2.2-1.92-.3-3.52,1.03-4.47,2.12.98,1.05,2.49,1.11,3.89.91Z"/>
      <path class="cls-6" d="M33.19,98.11c0-.42.35-1.25.71-1.46-1.39.2-2.9.14-3.89-.91l-2.22.04c-.58.69-1.48.98-2.37.84-.45.33-.46,1.06-.56,1.45l.63.69c2.33-2.02,4.9-1.66,7.69-.66Z"/>
      <path class="cls-14" d="M43.47,82.3c-.35.11-1.01-.05-1.38-.13-.64.72-1.56.72-2.38,1.05-.43,1.71.54,2.15,1.88,2.33,2.07.28,2.81-.79,2.73-2.45-.36-.21-.63-.46-.84-.79Z"/>
      <path class="cls-5" d="M50.6,82.64c.08-.3,0-.83-.18-1.08-.68-.93-1.27-2.11-2.44-2.1l.06,1.93c0,.27.17.82.38.99.62.48,1.23,1.08,1.79,1.64l.4-1.38Z"/>
      <path class="cls-2" d="M27.79,95.78c-.17-.75-.7-.71-1.19-.73-1.09-.05-1.4.74-1.18,1.58.89.13,1.79-.15,2.37-.84Z"/>
      <path class="cls-5" d="M44.31,83.09c.68-.12,1.52-.58,1.46-1.5l-2.3.71c.22.33.48.58.84.79Z"/>
      <path class="cls-5" d="M13.61,97.87c-.22.69-.28,1.37-.3,1.89,1.12-.24,1.69-1.2,1.68-2.32-.61-.28-1.25.03-1.38.44Z"/>
      <path class="cls-13" d="M2.99,95.72c.69.17,1.56.02,2.26.02.81-1.15,1.52-2.35,1.77-3.68.1-2.25-1.28-3.28-3.6-3.09-1.68.14-3.24,1.03-3.42,3.03v1.33c.31,1.24,1.54,2.03,2.99,2.4Z"/>
      <path class="cls-6" d="M33.19,100.29c-2.92.56-5.05,4.84-6.29,2.5-.52-.97-.7-1.94-1.58-2.34-.27,2.65-.28,7.11,1.85,9.04,2.64,2.4,7.34,3,9.24.36,1.24-2.05.19-5.38.23-7.35-1.41.28-3-.78-3.45-2.22Z"/>
      <path class="cls-6" d="M55.48,99.58c-.05-1.53-.45-3.02-2.01-3.5-.89-.27-2.27.42-3.21,1.14l.63,6.14,1.68-.03c1.89-.04,2.98-1.53,2.91-3.75Z"/>
      <path class="cls-15" d="M26.91,102.79c1.24,2.33,3.37-1.94,6.29-2.5v-2.17c-2.79-1.01-5.37-1.36-7.7.66l-.17,1.69c.88.4,1.06,1.37,1.58,2.34Z"/>
      <path class="cls-6" d="M38.99,102.04c1.36-.27,2.85-.34,2.99-2.03.1-1.32-.66-2.78-2.25-2.47.18,1.53-.06,3.07-.73,4.5Z"/>
      <path class="cls-11" d="M44.36,105.53c.05-1.53-4.1-2.2-4.26-2.15-.42.15-.47,1.1-.45,1.55,1.57.42,3.13.76,4.71.6Z"/>
      <path class="cls-5" d="M14.49,45.21l-1.03-4.27c-1.25.66-1.78,1.92-1.07,3.07.38.63,1.11,1.59,2.11,1.2Z"/>
      <path class="cls-12" d="M8.89,72.51l-1.35-4.21c-.62-.18-1.5-.2-2.1.34-.39.35-.72,1.08-.91,1.72-.17.42-.37,1.33-.02,1.86.37.55,1.68.25,2.47-.09.83,1.16.8,2.3,1.96,1.98,0-.48.11-1.13-.04-1.6Z"/>
      <path class="cls-12" d="M8.97,65.88l-.05-6.07c-2.19-.25-2.28,3.68-1.35,7.75.71,0,1.41-.57,1.4-1.68Z"/>
      <path class="cls-12" d="M7.41,55.73c-.11,1.36-.2,2.8,1.54,2.5l-.07-4.38c-1.44-.17-1.39.86-1.47,1.88Z"/>
      <path class="cls-12" d="M1.23,70.41c-.48.21-.8,1.09-.84,1.75.14.4,1.03,1.38,1.47,1.12.52-1.02.86-1.84,1.4-2.31-.27-.56-1.38-.86-2.04-.57Z"/>
      <path class="cls-14" d="M90.31,44.09c-.57,1.36-.44,2.93.66,4.9-4.67,1.49-6.94-3.87-13.18-2.44.84-1.65,1.83-1.59,3.4-2.7-1.78-.99-3.38-1.39-5.61-1.37.19,1.81.81,2.58,1.64,3.88-2.13.35-3.96.06-5.85,1.76l7.58.97c-.91,1.83-2.43,1.34-3.01,1.7-.83.51-1.15,1.79-1.12,3.26-3.03-.3-5.35.2-8.06.76.99,1.1,2.27,2.34,3.51,1.85l3.75-1.5c2-.03,4.41,1.44,6.48-.36,1.64-1.43,3.64-2.53,5.85-1.18-1.88,1.17-3.61.74-5.14,2.81l6.11,1.65c.79.21,1.76.37,2.27.97.31.36.41,1.02.33,1.55l1.38.04c.97.03,1.9.22,3.02.77l4.51,2.2c.46-3.99-6.79-4.48-5.76-10.98,2.76-.4,2.28,2.4,4.21,4,1.88,1.56,1.38-2.59,3.09-2.67-.04-2.29-1.44-4.05-4.08-4.09l-3.35-4.08c-.48-.59-1.27-1.08-2.64-1.7Z"/>
      <path class="cls-14" d="M102.09,62.99c.59-.79.55-1.6.54-1.94,0-.24.67.2,1.55.05.19.83.31,1.88.13,2.82l-.22,1.15c4.43.66,2.56,8.53,6.18,3.68-.71-3.75,2.36-7.43-.92-13.28-3.64,3.4.21-2.37-7.43-5.21.78,2.14,2.31,3.41,2.33,6.03-1.6-.24-2.22-1.16-3.11-1.74-1.84,2.75-1.22,6.25.95,8.44Z"/>
      <path class="cls-11" d="M97.29,56.62c-1.93-1.59-1.45-4.4-4.21-4-1.03,6.5,6.22,6.99,5.76,10.98,1.77.86,3.49.53,5.46.32.18-.94.06-1.99-.13-2.82-.87.15-1.55-.29-1.55-.05,0,.34.05,1.15-.54,1.94-2.17-2.19-2.79-5.69-.95-8.44-.21-.14-.42-.5-.75-.59-1.71.08-1.21,4.22-3.09,2.67Z"/>
      <path class="cls-11" d="M104.08,65.07c-.32,1.68-1.25,3.04-2.99,3.18-.13,1.54,3.17,2.59,4.29,6.94,1.87-1.46,1.39-2.93,2.2-4.27,1.72,2.51,1.23,4.77,1.14,7.06l1.15-.12c-.28-1.82-.22-3.61.08-5.43.18-1.12.52-2.57.31-3.67-3.62,4.84-1.75-3.02-6.18-3.68Z"/>
      <path class="cls-4" d="M101.93,32.95c.46,0,.83-.37.83-.84s-.37-.84-.83-.84-.83.37-.83.84.37.84.83.84Z"/>
      <path class="cls-14" d="M54.68,42.04c-1.14.56-2.14,2.18-3.79,2.46-.73.12-2.44-.62-2.64.8.78.29,1.62,1.26,1.29,2.06-.15.37-.89.62-1.28.75-.56,2.31-2.05,4.75-3.71,6.51-.81,1.43.69,2.96.96,4.15.04,1.57-2.15,2.23-2.91,2.64l.11.85c2.57-.8.85,3.49,3.02,4.69.56.31,1.44.28,2.14.12.06-1.98.32-4.14,1.72-5.6-.05-.43-.09-1.11,0-1.58.3-1.6.77-3.98,1.74-5.64.79-.36,2.63-.52,2.67-1.54l.09-2.56c.03-.91-.35-1.67-.05-3.05,1.53.72,2.28,1.92,1.87,3.24.45,1.06,1.42,1.72,2.5,2.01l1.62.06,1.97-.03,2.58.09c-.15-.96,0-2.19-.66-3.21l-6.59.71c-.84-3.05-.37-5.51-.5-8.04l-1.01-.31c-.31.01-.8.25-1.13.41Z"/>
      <path class="cls-14" d="M77.69,33.95c-3.17.99-6.64,1.52-9.62,1.14l-.49-.06c-.19.58,0,1.31.47,1.5l2.08.84c-1.14,2.21-3.65,2.87-6.47,2.3.16,2.34,2.36,3.42,4.5,3.13,1.92-.25,3.37-.55,5.05-1.55l-1.49-4.66c3.04.2,4.96-.05,7.73-.78-.33,1-.59,1.97-.2,2.31,2.48.56,4.87-.05,7.06-.78l6.42-2.12c-2.47-2.07-4.81-2.8-7.4-3.4l-6.01.26.57-3.89c-1.47.28-2.29,1.46-3.24,2.4,1.01.31,2.24,2.98,1.04,3.35Z"/>
      <path class="cls-12" d="M62.37,53.87c3.18,1.99,6.65,4.69,10.26,6.19l2.27-.17,1.57-.08h2.23c-.1-1.67,1.23-1.65,2.63-1.56,1.03.07,2.1.03,1.86,1.59l.86-.11c3.75-.5,3.62.8,5.88.86.08-.53-.02-1.19-.33-1.55-.52-.6-1.48-.76-2.27-.97l-6.11-1.65c1.53-2.07,3.26-1.64,5.14-2.81-2.21-1.36-4.21-.25-5.85,1.18-2.06,1.8-4.48.34-6.48.36l-3.75,1.5c-1.24.49-2.52-.74-3.51-1.85-.63-.7-2-1.16-2.19-2.35l-2.58-.09.38,1.5Z"/>
      <path class="cls-11" d="M77.69,33.95c1.2-.37-.03-3.04-1.04-3.35-2.45-.75-4.85-.53-7.04.73l-1.54,3.76c2.98.38,6.45-.15,9.62-1.14Z"/>
      <path class="cls-11" d="M46.84,47.4c.68-.37,1.46-.05,1.43.7.39-.13,1.13-.37,1.28-.75.32-.8-.51-1.77-1.29-2.06.2-1.41,1.91-.67,2.64-.8,1.65-.28,2.65-1.9,3.79-2.46.44-.49.52-1.41-.3-1.58-.31-.06-.74-.06-1.41-.25l-5.76,2.95c-.97.5-2.16,1.3-2.36,2.38l-.6,3.26,2.57-1.41Z"/>
      <path class="cls-5" d="M54.68,42.04c.33-.16.82-.4,1.13-.41.39-1.28,1.7-2.19,2.66-2.8l1.21-1.35c.38-.95,1.04-2.27,2.65-2.31l5.25-.13.49.06,1.54-3.76c-.88.51-2.97-.06-4.18.25-3.8.95-5.84,4.29-8.78,6.17-1.63,1.04-2.74,1.19-3.67,2.47.67.19,1.1.19,1.41.25.82.16.74,1.09.3,1.58Z"/>
      <path class="cls-12" d="M58.12,26.77c-.92,2.24-.96,4.24-.7,6.19,2.76-1.75,2.41-4.94.7-6.19Z"/>
      <path class="cls-14" d="M58.12,41.83c.85-.07,2.45-.19,2.48-1.38.03-1.13-.62-2.15-.92-2.97l-1.21,1.35-.35,3.01Z"/>
      <path class="cls-11" d="M55.81,41.62l1.01.31,1.29-.11.35-3.01c-.96.61-2.26,1.52-2.66,2.8Z"/>
      <path class="cls-12" d="M56.95,34.28c-.46,0-.83.37-.83.83s.37.83.83.83.83-.37.83-.83-.37-.83-.83-.83Z"/>
      <path class="cls-12" d="M109.28,82.82c.19.92.26,1.9.16,2.67,1.45-.79,1.66-2.68,1.34-4.67-.15-.93-1.52-1.1-2.29-.71-.51.27-1.17.5-1.28,1.35l-.13.94c.72-.54,2.04-.4,2.2.41Z"/>
      <path class="cls-14" d="M99.98,65.92c-2.41-.62-2.88,2.92-1.77,8.14l.84,3.97c.78,3.7.61,7.68-.28,11.76,3.31.76,1.53-4.6,6.74-9.06.96-.82,1.66-2.59,3.2-2.75.09-2.28.59-4.54-1.14-7.06-.81,1.35-.33,2.81-2.2,4.27-1.12-4.35-4.42-5.4-4.29-6.94.06-.77-.1-2.07-1.11-2.33Z"/>
      <path class="cls-14" d="M76.55,125.02l-1.62.23-10.32-.48c-.7,3.3,4.15,4.27,3.76,11.28l3.17,1.48c.75,6.04,10.12,8.08,12.18,6.41.99-.8,1.96-3.86.23-4.49-1.29-.47-3.33.79-4.71-.94.92-.96,2.35-1.02,2.52-1.74.27-1.09.08-3.21-.66-3.2-1.53,0-2.69-.4-3.33-1.02-.61-.59-1.92-2.4-.95-2.91l4.89-3.06c.15-.17.39-.44.43-.69.39-2.32,5.8-4.18,8.14-8.84-1.7-.05-2.71.85-3.44,1.48-1.42,1.23-3.15,2.59-5.17,2.9-.45,2.14-3.1,3.31-5.12,3.6Z"/>
      <path class="cls-5" d="M81.01,129.92c.18.49.73,1.1,1.13,1.25.47.19,1.06-.44,1-.91-.25-.64-.74-1.14-1.44-1.43-.19.3-.84.63-.68,1.09Z"/>
      <path class="cls-6" d="M106.72,167.42l-5.46,3.46-.71,3.07c-.69,2.99,3.88.72,8.9-.95,2.26-.75,4.49-2.47,5.33-4.79-1.56-.71-2.32-1.48-2.52-2.5l-.64-.06c-1.65-.15-3.26.73-4.89,1.76Z"/>
      <path class="cls-5" d="M106.76,165.01l-1.35-.09c-.47-.03-.8.9-.57,1.5.69-.32,1.77-.19,1.91-1.41Z"/>
      <path class="cls-6" d="M84.04,59.73c-.37,1.43,1.49,1.59,2.14,2.15,2.05,1.78.85,4.51,1,6.61l1.07,2.35c.24.52-.37,1.32-1.06,1.79,1.93,1.48,5.25,1.77,4.94,5.69-3.08-2.11-5.44-4.28-9.14-3.29,2.92,2.32,7.02,2.97,8.38,4.79.49.66-.06,2.28-.84,2.25-4.83-.15-6.31,5.44-15.83,2.18l1.04-2.49c-1.31.29-1.34-.9-1.76-1.01-3.91-1.07-5.33-6.98-3.28-9,.79-.78,1.68-.24,2.83-.28,1.53-.05,3.01-.49,4.6-.12l-.16-1.24-5.6-.49c.91-1.52,1.57-3.66.49-4.75-.77,0-3.15-.55-2.1-1.93l4.14-.74v-2.33s-2.28.17-2.28.17c-12.6.94-17.82-2.94-17.9,2.13,2.62-.2,4.98-.5,6.89,1.31-3.29.28-5.78-.66-8.87.72,1.65,1.36,3.14,1.23,5.14,1.77-.79,1.42-2.11,1.61-3.66,1.55-.42,1.21-.27,2.03-.11,2.86l.69.06c1.27.12,2.48.17,3.69.57,2.52.83,4.74,2.4,6.52,4.74l.22,2.86,2.97-.8c3.37,6.76-1.87,10.38-.79,17.29.44-.17,1.47-.04,1.58.41.16.61-.02,1.36-.04,1.86.24-.5.63-1.05,1.22-1.26.55-.19,1.69,1.22,2.93.67.75-.33,1.34.22,1.05.89-1.22,2.83-2.95,1.74-6.57,1.78-.95.72-1.75,1.34-3.28.93.34,1.15.1,2.59-1.19,2.91l-.11,2.19c2.32.89,4.62.56,7.16.56,3.16,0,6.03,1.84,8.95,3.05-1,1.79-2.37,1.12-3.41,1.09l-2.03-.05c-.3,2.63-4.78.14-4.89,3.7l3.87-.03.62-.61c.3-.3.91-.04.9.31l-.03,1.06.74-.02c2.55-.07,4.79-.91,7.14-2.41,3.1,4.31,2.54-1.69,8.64-2.91,1.77-2.59,1.8-9.19,1.84-9.14-.21-.32-.72-.62-1.89-.96l4.6-10.84c1.02-2.4,3.11-3.61,2.72-7.06-.11-.98.07-2.79,1.08-3.22l-.84-3.97c-5.21-2.62-1.63-9.77-3.8-10.4-.87-.25-2.09-.07-2.66-.79-.44-.56-.57-1.46-.44-2.24l-1.38-.04c-2.25-.06-2.13-1.36-5.88-.86Z"/>
      <path class="cls-1" d="M78.02,120.61c-2.31,2.57-6.09,1.6-8.42.33-.61-.33-3.02.45-2.86-1.29.05-.73,1.37-2.01,1.17-2.74l-3.85,1.03c-1.5.4-1.94,1.83-1.72,2.85.32,1.43,1.15,2.22,2.77,2.24l4.76.06c2.01.03,4.16.51,5.06,2.16l1.62-.23c.24-2.42,2.94-3.45,5.12-3.6l.82-3.85c-1.78-.29-2.83.37-3.95.8.25.77.11,1.55-.52,2.24Z"/>
      <path class="cls-12" d="M82.15,125.88c5.39-.28,10.87-7.1,12.1-12.44.25-1.08,2.98-2.15,2.38-4.34-.75-2.73-3.58,4.33-7.15,5.76-1.84.74-2.74,1.76-2.64,3.65.73-.63,1.74-1.53,3.44-1.48-2.34,4.66-7.75,6.53-8.14,8.84Z"/>
      <path class="cls-6" d="M67.9,116.91c.2.73-1.12,2.02-1.17,2.74-.16,1.74,2.25.96,2.86,1.29,2.34,1.27,6.12,2.24,8.42-.33.63-.7.76-1.48.52-2.24-1.43.55-2.53-.39-3.61-.57-2.33-.39-4.78-1.49-7.03-.89Z"/>
      <path class="cls-6" d="M96.27,94.02c-2.14-.31-2.25,8.03-2.19,8.13.43.71,1.72.75,2.33.57,1.54-.44,3.15-8.22-.14-8.7Z"/>
      <path class="cls-4" d="M12.26,73.83c.89,2.02.83,4.24-.36,5.78,0,.55.2,1.37,0,1.89,2.56.26,1.65-3,3.43-3.83.93-.43,2.23-.48,3.68.22l1.14-2.33.06-2.95c.03-.72.09-2.57-.56-2.97l-4.06,1.27c.83-1.7,2.5-3.09,1.37-5-.4-.67-2.06-.27-2.37.62-.33.95-.12,1.78.3,3.44.19.77-2.27.75-2.94-.43-.82.53-.93,1.79-1.14,2.26-.26.57-1.27.82-1.9.71.15.46.03,1.11.04,1.6v1.64c1.2-.14,2.02-.41,3.33-1.92Z"/>
      <path class="cls-12" d="M13.81,91.58l-.02-1.06c-2.62.49-3.1-5.93-1.9-9.02.2-.52,0-1.34,0-1.89-.8.09-2.46,0-2.75-.74-.4-1.03-.18-2.24-.22-3.12-.6.07-1.12.35-1.68.1,1.62,4.77,1.13,8.75,1.23,13.12,1.01,1.01,2.24,1.92,3.36,2.47.48.24,1.46.12,1.98.14Z"/>
      <path class="cls-12" d="M2.3,82.76c1.06-1.24,1.48-6.44-1.33-7.93l-.63,7.3c-.09,1,1.51,1.16,1.96.63Z"/>
      <path class="cls-15" d="M13.05,93.6c.75-.41.77-1.45.76-2.02-.52-.03-1.5.1-1.98-.14-.25.47-.59.99-.7,1.51.52.11,1.43.94,1.93.66Z"/>
      <path class="cls-12" d="M63.89,108.01l10.38.52c.6.03,1.26.24,1.39.5.15.28.11.91.06,1.17,1.04.03,2.41.7,3.41-1.09-2.92-1.21-5.79-3.05-8.95-3.05-2.54,0-4.84.33-7.16-.56l-3.62,2.53c-.63.44-.77,1.11-.85,1.7-.1.78.51,1.27,1.37,1.19l.8-.75c-.04-1.35,1.51-2.23,3.17-2.15Z"/>
      <path class="cls-2" d="M73.69,110.15l-10.7-.12c-.16.82-.11,2.33.93,2.91,1.62.9,3.38.93,4.88.92.11-3.57,4.59-1.08,4.89-3.7Z"/>
      <path class="cls-4" d="M75.73,110.2c.05-.26.08-.89-.06-1.17-.14-.26-.79-.47-1.39-.5l-10.38-.52c-1.66-.08-3.21.8-3.17,2.15l2.27-.13,10.7.12,2.03.05Z"/>
      <path class="cls-2" d="M73.3,113.21l-.62.61c.16.69.88.78,1.49.76l.03-1.06c0-.35-.59-.6-.9-.31Z"/>
      <path class="cls-4" d="M42.61,61.4c-.55-.02-1.05-.29-1.23-.66-.16-.33-.33-1.04-.12-1.54l1.84-4.59c.47-.37.54-2.54-.27-2.27l-4.84,1.58.15-3.11c2.88,1.58,4.91-.29,6.13-2l.6-3.26c-1.05-.49-2.06-.86-3.3-.89-1.05-.03-2.07,2.15-3.17,2.44-2.73.74-5.36.86-5.71,4.43l-5.04,1.76c1.06,1.98,2.45,3.61,2.13,5.55-.13.79-1.28,1.21-1.72,1.2-1.31-.02-.62-3.16-2.36-4.51-.65-.5-2.82-.28-3,.82-.4,2.49-.13,5.25.51,7.34l2.07-1.52c.71-.52,1.16.8,1.41,1.68.24.83.49,1.63-.12,1.96-.6.32-1.31-.3-2.1-.91-1.1-.73-3.1,1.32-3.35,2.49-.34,1.57,1.42,4.45,3.1,3.6,1.31-.67,2.49-1,3.02-1.55.89-.91-.15-5.59,1.66-4.64,1.3.68-.15,3.5.72,3.94,1.04.53,1.71-.3,2.32-.91,1.58-1.58,3.38.78,4.47,1.13,2.64.86,4.49,1.13,6.57,2.31l-.27-9.03-.11-.85ZM36.73,55.26c-.36,0-.64-.29-.64-.65s.29-.65.64-.65.64.29.64.65-.29.65-.64.65Z"/>
      <path class="cls-12" d="M45.66,76.65l.04-4.03c-.03-1.74.56-2.44,1.57-3.01.66-.41.59-1.86.61-2.55-.7.16-1.58.18-2.14-.12-2.17-1.2-.45-5.49-3.02-4.69l.27,9.03c.38.34.9.79,1.03,1.2.28.83-.25,1.6-1,1.78l.54,1.43c.61,0,1.78.43,2.1.96Z"/>
      <path class="cls-12" d="M20.94,50.44c-.33.76-1.92.38-2.68,1.71-.26.44-.35,1.19.36,1.37l3.64.89-.05-6.31c0-.89-.92-.99-1.26-.69-1.2,1.08.32,2.29,0,3.03Z"/>
      <path class="cls-10" d="M22.64,74.12c-.15-.4.04-1.93-.49-2.08-.49-.14-1.25.22-1.95.56l-.06,2.95,1.53.57c.89.33,1.29-1.15.97-2.01Z"/>
      <path class="cls-5" d="M43.02,74.26c-.45-.11-1.37-.24-2.05-.1-.45.1-.78.84-.51,1.48l3.1.04-.54-1.43Z"/>
      <path class="cls-12" d="M19.7,49.19c-.22-.56-1.38-1.42-1.96-1.32-.43.07-1.19.91-1.13,1.29.58.21,1.21.44,3.09.03Z"/>
      <path class="cls-15" d="M68.22,77.81l-2.97.8c-.21.06-.5.04-.76.04l.26,2.23.4,1.43c.47.28.81.7.87,1.16.14,1.09-.79,1.45-1.59,1.22l-.04,1.26c-.15,4.46-3.48,9.08.47,9.43.89.08,1.75.04,2.58-.28-1.09-6.91,4.16-10.54.79-17.29Z"/>
      <path class="cls-5" d="M65.16,82.32l-.4-1.43c-3.37-1.38-5.49-4.31-10.18-2.62l3.15.7c-.92,1.17-.7,2.06-.87,2.88-.19.97-1.33,1.44-2.34,1.31,1.09,1.18,2.74,1.16,4.75,1.37l-1.01,2.12.25,2c.29,2.28,2.8-2.61,5.88-2.7l.04-1.26c.03-.85-.05-1.82.72-2.38Z"/>
      <path class="cls-12" d="M54.51,83.15c-.29-.35-.23-1.31-1.15-1.51-.27.73-.82,1.75-1.28,1.99-.39.21-1.25-.68-1.48-.99l-.4,1.38,1.36,1.36c.74-.1,1.72-.13,2.61.08.41.1.8.66.59,1.37l3.49-.18,1.01-2.12c-2.02-.22-3.67-.19-4.75-1.37Z"/>
      <path class="cls-11" d="M67.6,99.47c-.25-.75-.29-1.43-.22-2.11-2.26-.02-4.33-.27-6.92-2.04-.44,1.98,1.01,2.93.99,4.25l2.88.82c1.52.42,2.33-.21,3.28-.93Z"/>
      <path class="cls-5" d="M67.6,99.47c3.62-.04,5.35,1.05,6.57-1.78.29-.67-.3-1.22-1.05-.89-1.24.54-2.37-.87-2.93-.67-.59.21-.98.75-1.22,1.26h-1.6c-.06.66-.03,1.34.22,2.09Z"/>
      <path class="cls-5" d="M64.32,100.39l-2.88-.82-.04,2.65c-.01.81.67,1.44,1.73,1.09,1.29-.32,1.53-1.76,1.19-2.91Z"/>
      <path class="cls-5" d="M54.18,85.46c-.89-.21-1.87-.18-2.61-.08.73,1.25,1.74,1.53,3.2,1.45.21-.71-.18-1.27-.59-1.37Z"/>
      <path class="cls-12" d="M55.7,76.51c0-1.61-1.61-2.3-2.81-1.68l-2.84,1.46c-.6.31-1.14-1.67-.44-2.16l-1.35-.05-.28,5.39c1.18-.01,1.77,1.17,2.44,2.1.5-2.61,2.67-4.14,5.28-5.05Z"/>
      <path class="cls-5" d="M51,71.89c-3.4-4.94.4-7.56-1.4-10.43-1.4,1.46-1.66,3.62-1.72,5.6-.02.69.05,2.13-.61,2.55.99,1.24,1.07,2.98.99,4.46l1.35.05c.82-.39,1.34-1.28,1.39-2.24Z"/>
      <path class="cls-14" d="M52.08,83.64c.46-.25,1-1.26,1.28-1.99.92.2.86,1.16,1.15,1.51,1.01.13,2.15-.34,2.34-1.31.16-.82-.05-1.71.87-2.88l-3.15-.7c4.7-1.69,6.81,1.25,10.18,2.62l-.26-2.23c-.35-2.99-6.83-3.94-5.99-7.64-1.21-.4-2.42-.44-3.69-.57.12.55-.16,1.14-.6,1.3-.59.22-1.13.1-1.64.11l-1.58.04c-.04.95-.56,1.84-1.39,2.24-.7.5-.16,2.47.44,2.16l2.84-1.46c1.2-.62,2.82.07,2.81,1.68-2.62.91-4.78,2.44-5.28,5.05.18.25.26.77.18,1.08.23.31,1.09,1.21,1.48.99Z"/>
      <path class="cls-12" d="M91.75,62.87c.57.73,1.79.54,2.66.79,2.17.63-1.41,7.78,3.8,10.4-1.1-5.22-.64-8.75,1.77-8.14,1.01.26,1.18,1.56,1.11,2.33,1.74-.14,2.66-1.51,2.99-3.18l.22-1.15c-1.97.21-3.69.55-5.46-.32l-4.51-2.2c-1.12-.55-2.06-.74-3.02-.77-.12.79,0,1.68.44,2.24Z"/>
      <path class="cls-2" d="M51,71.89l1.58-.04c-.12-.52.13-1,.52-1.19.35-.17.68-.25,1.03-.27-.17-.83-.31-1.65.11-2.86,1.55.06,2.87-.12,3.66-1.55-2-.53-3.49-.41-5.14-1.77,3.09-1.38,5.58-.45,8.87-.72-1.92-1.81-4.27-1.51-6.89-1.31.08-5.07,5.3-1.18,17.9-2.13-3.61-1.5-7.08-4.21-10.26-6.19-.48,0-1.35.12-1.91-.12-.43-.18-.68-.77-.43-1.35l-1.62-.06c.07.57.08,1.24-.12,1.76-.37.95-1.66-.03-2.21-.07-3.89-.33-4.05,5.65-6.48,5.85-.09.47-.05,1.15,0,1.58,1.8,2.87-2,5.49,1.4,10.43Z"/>
      <path class="cls-5" d="M48.27,48.1c.03-.76-.75-1.07-1.43-.7l-2.57,1.41c-1.22,1.71-3.25,3.58-6.13,2l-.15,3.11,4.84-1.58c.81-.27.75,1.9.27,2.27h1.46c1.66-1.75,3.14-4.19,3.71-6.5Z"/>
      <path class="cls-12" d="M45.52,58.75c-.27-1.19-1.77-2.72-.96-4.15h-1.46s-1.84,4.59-1.84,4.59c-.2.5-.04,1.22.12,1.54.18.36.68.64,1.23.66.76-.41,2.96-1.07,2.91-2.64Z"/>
      <path class="cls-5" d="M56.08,54.03c.55.05,1.84,1.02,2.21.07.2-.52.19-1.19.12-1.76-1.08-.28-2.05-.95-2.5-2.01-.59-.18-1.2-.23-1.82-.19l-.09,2.56c-.04,1.02-1.88,1.18-2.67,1.54-.97,1.66-1.44,4.04-1.74,5.64,2.44-.2,2.59-6.18,6.48-5.85Z"/>
      <path class="cls-12" d="M54.04,47.09c-.3,1.37.08,2.13.05,3.05.62-.04,1.23.01,1.82.19.41-1.32-.34-2.52-1.87-3.24Z"/>
      <path class="cls-5" d="M60.46,53.75c.57.24,1.44.13,1.91.12l-.38-1.5-1.97.03c-.25.58,0,1.17.43,1.35Z"/>
      <path class="cls-15" d="M76.49,62.1c-.39-.05-1.24.06-1.58.12l-4.14.74c-1.05,1.38,1.32,1.93,2.1,1.93,1.08,1.1.42,3.23-.49,4.75l5.6.49c3.36.29,6.36.32,9.22,2.51.69-.47,1.29-1.27,1.06-1.79l-1.07-2.35c-.15-2.11,1.05-4.83-1-6.61-.64-.56-2.5-.72-2.14-2.15l-.86.11c-.59.08-1.17.22-1.71.46-.92,1.87-3.19,2.02-4.98,1.79Z"/>
      <path class="cls-6" d="M81.47,60.31l-2.78-.48h-2.23s.02,2.27.02,2.27c1.8.23,4.06.08,4.98-1.79Z"/>
      <path class="cls-2" d="M83.18,59.85c.24-1.55-.83-1.52-1.86-1.59-1.4-.09-2.74-.11-2.63,1.56l2.78.48c.54-.24,1.12-.38,1.71-.46Z"/>
      <path class="cls-2" d="M76.49,62.1l-.02-2.28-1.57.08v2.33c.35-.06,1.21-.17,1.59-.12Z"/>
      <path class="cls-5" d="M76.55,125.02c2.02-.29,4.66-1.46,5.12-3.6-2.17.15-4.88,1.18-5.12,3.6Z"/>
      <path class="cls-5" d="M78.14,71.38l6.18,1.44c-1.66,1.32-3.55.83-5.58,1.3.63,2.64,1.55,4.73.7,7.66-.16.56-1.77.37-1.85-.18-.06-.38-.61-1.52-1-1.5-.92.05-1.05,1.39-.84,1.69l-1.04,2.49c9.52,3.25,11-2.33,15.83-2.18.78.02,1.33-1.6.84-2.25-1.36-1.83-5.46-2.47-8.38-4.79,3.7-.99,6.06,1.18,9.14,3.29.31-3.92-3.02-4.21-4.94-5.69-2.86-2.19-5.86-2.22-9.22-2.51l.16,1.24ZM85.33,82.07c-1.31.6-3.21,1.37-5.02.91-.08-1.23,1.96-3.02,2.49-3,.72.02,1.61.46,2.52,2.1Z"/>
      <path class="cls-11" d="M76.59,80.09c.39-.02.94,1.12,1,1.5.08.54,1.69.73,1.85.18.84-2.93-.07-5.01-.7-7.66,2.03-.47,3.92.01,5.58-1.3l-6.18-1.44c-1.59-.37-3.07.07-4.6.12,1.76,3.95-1.23,5.43,1.18,7.75.37.36.5,1.43-.73,1.53.42.12.45,1.3,1.76,1.01-.2-.3-.08-1.65.84-1.69Z"/>
      <path class="cls-5" d="M74.71,79.24c-2.41-2.32.59-3.8-1.18-7.75-1.15.04-2.04-.5-2.83.28-2.05,2.02-.63,7.92,3.28,9,1.22-.1,1.1-1.17.73-1.53Z"/>
      <path class="cls-5" d="M64.49,78.65c.25,0,.54.01.76-.04l-.22-2.86c-1.78-2.33-4.01-3.9-6.52-4.74-.85,3.7,5.64,4.65,5.99,7.64Z"/>
      <path class="cls-5" d="M52.58,71.86c.5-.01,1.04.11,1.64-.11.43-.16.72-.75.6-1.3l-.69-.06c-.35.02-.68.1-1.03.27-.39.19-.63.68-.52,1.19Z"/>
      <path class="cls-14" d="M9.15,78.87c.29.74,1.94.83,2.75.74,1.19-1.54,1.25-3.75.36-5.78-1.31,1.51-2.13,1.77-3.33,1.92.04.88-.18,2.09.22,3.12Z"/>
      <path class="cls-5" d="M36.73,53.97c-.36,0-.64.29-.64.65s.29.65.64.65.64-.29.64-.65-.29-.65-.64-.65Z"/>
      <path class="cls-6" d="M64.43,84.69c.8.23,1.73-.13,1.59-1.22-.06-.46-.4-.88-.87-1.16-.77.56-.69,1.53-.72,2.38Z"/>
      <path class="cls-6" d="M80.31,82.97c1.81.46,3.71-.31,5.02-.91-.91-1.64-1.8-2.08-2.52-2.1-.53-.01-2.57,1.77-2.49,3Z"/>
    </g>
  </g>
</svg>